<?xml version="1.0" ?><svg id="Layer_1" style="enable-background:new 0 0 64 64;" version="1.1" viewBox="0 0 64 64" xml:space="preserve" xmlns="http://www.w3.org/2000/svg" xmlns:xlink="http://www.w3.org/1999/xlink"><style type="text/css">
	.st0{fill:url(#SVGID_1_);}
	.st1{fill:url(#SVGID_2_);}
	.st2{fill:url(#SVGID_3_);}
	.st3{fill:url(#SVGID_4_);}
	.st4{fill:url(#SVGID_5_);}
	.st5{fill:#FFFFFF;}
	.st6{fill:url(#SVGID_6_);}
	.st7{fill:url(#SVGID_7_);}
	.st8{fill:url(#SVGID_8_);}
	.st9{fill:url(#SVGID_9_);}
	.st10{fill:url(#SVGID_10_);}
	.st11{fill:#FFBF0B;}
	.st12{fill:#1A1A54;}
	.st13{fill:#DC2863;}
	.st14{fill:none;stroke:#1A1A54;stroke-width:3;stroke-linecap:round;stroke-linejoin:round;stroke-miterlimit:10;}
	.st15{fill:#0B85FF;}
	.st16{opacity:0.5;fill:#FFFFFF;}
	.st17{fill:#00AF64;}
	.st18{fill:#00D17C;}
	.st19{fill:none;stroke:#00D17C;stroke-width:3;stroke-linecap:round;stroke-linejoin:round;stroke-miterlimit:10;}
	.st20{fill:#8C5C3B;}
	.st21{opacity:0.1;fill:#1A1A54;}
	.st22{opacity:0.2;fill:#1A1A54;}
	.st23{fill:none;stroke:#FFFFFF;stroke-width:2;stroke-linecap:round;stroke-miterlimit:10;}
	.st24{fill:#E86942;}
	.st25{fill:#6642AD;}
	.st26{fill:url(#SVGID_11_);}
	.st27{fill:url(#SVGID_12_);}
	.st28{fill:url(#SVGID_13_);}
	.st29{opacity:0.2;}
	.st30{fill:none;stroke:#1A1A54;stroke-width:2;stroke-miterlimit:10;}
	.st31{fill:#E8E8EE;}
	.st32{fill:#D1D1DC;}
	.st33{fill:none;stroke:#D1D1DC;stroke-width:1.8172;stroke-linecap:round;stroke-miterlimit:10;}
	.st34{opacity:0.5;fill:#E8E8EE;}
	.st35{fill:none;stroke:#E8E8EE;stroke-width:7.1126;stroke-linecap:round;stroke-linejoin:round;stroke-miterlimit:10;}
	.st36{fill:none;stroke:#D1D1DC;stroke-width:2.3709;stroke-linecap:round;stroke-miterlimit:10;}
	.st37{fill:#F2AD00;}
	.st38{fill:none;stroke:#E8E8EE;stroke-width:5;stroke-linecap:round;stroke-linejoin:round;stroke-miterlimit:10;}
	.st39{fill:none;stroke:#FFFFFF;stroke-width:4;stroke-linecap:square;stroke-miterlimit:10;}
</style><circle class="st11" cx="32" cy="32" r="32"/><g><path class="st12" d="M11.2,27.9c0.8-1.4,1.9-2.2,3.2-2.7c1.3-0.5,2.7-0.7,4.1-0.6c1.4,0.1,2.7,0.5,3.8,1c0.6,0.3,1.1,0.6,1.7,1   c0.5,0.4,1,0.8,1.4,1.3c0.3,0.3,0.2,0.8-0.1,1.1c-0.1,0.1-0.3,0.2-0.5,0.2l-0.1,0c-0.6,0-1.2-0.1-1.8-0.2c-0.6,0-1.1-0.1-1.6-0.2   c-1.1-0.1-2.1-0.3-3-0.3c-1,0-1.9,0-2.9,0.1c-0.9,0.1-2,0.3-2.9,0.5l-0.3,0.1c-0.5,0.1-1-0.2-1.1-0.7   C11.1,28.3,11.1,28.1,11.2,27.9z"/></g><g><path class="st12" d="M51.5,29.1c-0.9-0.2-2-0.5-2.9-0.5c-0.9-0.1-1.9-0.1-2.9-0.1c-1,0-2,0.2-3,0.3C42.1,28.9,41.6,29,41,29   c-0.6,0.1-1.1,0.2-1.8,0.2l-0.1,0c-0.4,0-0.8-0.4-0.8-0.8c0-0.2,0.1-0.4,0.2-0.5c0.4-0.5,0.9-0.9,1.4-1.3c0.5-0.4,1.1-0.7,1.7-1   c1.2-0.5,2.5-1,3.8-1c1.4-0.1,2.8,0.1,4.1,0.6c1.3,0.6,2.5,1.4,3.2,2.7c0.2,0.4,0.1,1-0.3,1.2c-0.2,0.1-0.4,0.1-0.7,0.1L51.5,29.1z   "/></g><g><path class="st12" d="M20.6,42.6c2.1,0.3,4,0.8,5.9,1.2c1.9,0.3,3.7,0.6,5.4,0.6c1.8,0,3.6-0.2,5.4-0.5c1.9-0.3,3.9-0.8,6-1.1l0,0   c0.8-0.1,1.5,0.4,1.6,1.2c0.1,0.5-0.1,1-0.5,1.3c-1.7,1.4-3.6,2.6-5.7,3.4c-2.1,0.9-4.5,1.4-6.9,1.4c-2.4,0-4.8-0.5-6.9-1.4   c-2.1-0.8-4-2-5.7-3.4c-0.7-0.5-0.8-1.5-0.2-2.2C19.5,42.7,20.1,42.6,20.6,42.6L20.6,42.6z"/></g><g><path class="st31" d="M15,58.2c0-4.3,3.5-4.3,7.8-4.3s9.1,0,9.1,4.3c0,6.9-4.8,5.8-9.1,5.8C15,64,15,62.5,15,58.2z"/><g><path class="st31" d="M32.3,36.8c0.1,3.7,0.1,7.4,0.1,11.1c0,1.9-0.1,3.7-0.1,5.6c0,0.9-0.1,1.9-0.2,2.9c0,0.5-0.1,1-0.2,1.5    c-0.1,0.5-0.2,1.1-0.3,1.6c-0.4,2.7-3,4.6-5.7,4.1c-2.7-0.4-4.6-3-4.1-5.7c0.1-0.4,0.2-0.7,0.3-1.1l0.1-0.2c0.1-0.3,0.3-0.6,0.4-1    c0.1-0.4,0.3-0.7,0.4-1.2c0.3-0.8,0.5-1.6,0.8-2.5c0.5-1.7,0.9-3.4,1.4-5.2c0.9-3.5,1.7-7.1,2.4-10.6l0,0c0.3-1.3,1.5-2.1,2.8-1.8    C31.6,34.8,32.3,35.7,32.3,36.8z"/></g></g><g><path class="st31" d="M49,58.2c0-4.3-3.5-4.3-7.8-4.3s-9.1,0-9.1,4.3c0,6.9,4.8,5.8,9.1,5.8C49,64,49,62.5,49,58.2z"/><g><path class="st31" d="M36.3,36.4c0.8,3.5,1.6,7.1,2.4,10.6c0.4,1.7,0.9,3.5,1.4,5.2c0.2,0.8,0.5,1.7,0.8,2.5    c0.1,0.4,0.3,0.8,0.4,1.2c0.1,0.4,0.3,0.7,0.4,1l0.1,0.1c1,2.5-0.2,5.4-2.7,6.5c-2.5,1-5.4-0.2-6.5-2.7c-0.1-0.4-0.2-0.7-0.3-1.1    C32.2,59,32,58.4,32,57.9c-0.1-0.5-0.1-1-0.2-1.5c-0.1-1-0.1-1.9-0.2-2.9c-0.1-1.9-0.1-3.8-0.1-5.6c0-3.7,0-7.4,0.1-11.1    c0-1.3,1.1-2.3,2.4-2.3C35.1,34.5,36.1,35.3,36.3,36.4L36.3,36.4z"/></g></g><g><path class="st32" d="M32.6,36.6l0.3,22.6c0,0.5-0.4,0.9-0.9,0.9c-0.5,0-0.9-0.4-0.9-0.9c0,0,0,0,0,0l0.3-22.6   c0-0.3,0.3-0.6,0.6-0.6C32.3,36,32.6,36.3,32.6,36.6z"/></g></svg>