<svg xmlns="http://www.w3.org/2000/svg" viewBox="0 0 429.36 113.19"><title>accenture-logo</title><polygon points="250.25 31.64 274.97 22.45 250.25 12.79 250.25 0 292.58 17.05 292.58 27.66 250.25 44.81 250.25 31.64" style="fill:#8b4f9f"/><path d="M75.61,295.07c0,5.21-4.35,7.86-9.09,7.86s-6.72-2.37-6.72-5.78v-.47c0-4.45,3.5-6.34,10.32-6.34h5.49ZM69,261c-11.74,0-20.46,5.4-21.4,16.39H60.83c.38-3.79,2.84-6.44,7.48-6.44,5.11,0,7.29,3,7.29,8v2.37H69.45c-12.79,0-23.39,4-23.39,16.19V298c0,10,7.39,14.58,16.29,14.58,6.63,0,11.17-3.12,13.54-6.72v5.68H89.44V278.4C89.44,266.09,80.91,261,69,261" transform="translate(-46.06 -199.41)"/><path d="M120.79,312.59c-13.73,0-23.68-8.52-23.68-25.29v-.66c0-16.76,10.6-25.67,23.77-25.67,11.27,0,20.55,5.68,21.69,18.65H129.32c-.86-4.83-3.32-8-8.14-8-5.88,0-9.95,4.64-9.95,14.4v1.52c0,10,3.6,14.59,10,14.59,4.73,0,8.24-3.51,9-8.9h12.6c-.95,11.27-8.62,19.32-22.07,19.32" transform="translate(-46.06 -199.41)"/><path d="M172.32,312.59c-13.73,0-23.68-8.52-23.68-25.29v-.66c0-16.76,10.6-25.67,23.77-25.67,11.27,0,20.55,5.68,21.69,18.65H180.84c-.86-4.83-3.32-8-8.14-8-5.88,0-9.95,4.64-9.95,14.4v1.52c0,10,3.6,14.59,10,14.59,4.73,0,8.23-3.51,9-8.9h12.6c-.95,11.27-8.62,19.32-22.07,19.32" transform="translate(-46.06 -199.41)"/><path d="M214.37,281.06c1.14-8.05,5.12-10.42,9.47-10.42,5.49,0,8.81,3.13,9.09,10.42Zm32,3.22c0-16.38-10.33-23.3-22.64-23.3-13.26,0-23.58,9.09-23.58,25.67v.94c0,16.48,9.75,25,24.06,25,13,0,20.64-7.1,22.16-16.48H233.6c-.94,3.6-3.79,6.44-9.09,6.44-6,0-9.75-3.41-10.32-12.31h32.2Z" transform="translate(-46.06 -199.41)"/><path d="M254.91,262h13.83v7.39c2.47-4.64,7.39-8.43,15-8.43,9,0,15,5.4,15,17.43v33.15H284.84V280.48c0-5.78-2.37-8.33-7.39-8.33-4.83,0-8.71,2.94-8.71,9.19v30.21H254.91Z" transform="translate(-46.06 -199.41)"/><path d="M324.53,247.05v15H334v10.32h-9.47v23.49c0,3.69,1.71,5.4,4.93,5.4a12,12,0,0,0,4.83-.85v10.79a28.27,28.27,0,0,1-7.77,1c-10.8,0-15.91-4.93-15.91-15V272.34h-5.78V262h5.78v-9.28Z" transform="translate(-46.06 -199.41)"/><path d="M386.1,311.55H372.27v-7.29c-2.37,4.74-7,8.33-14.4,8.33-8.9,0-15.44-5.4-15.44-17V262h13.92v31.44c0,5.68,2.27,8.34,7.2,8.34s8.72-3,8.72-9.19V262H386.1Z" transform="translate(-46.06 -199.41)"/><path d="M396.14,262H410v9.09c2.94-6.63,7.58-9.76,14.87-9.76V275c-9.38,0-14.87,2.84-14.87,11.09v25.48H396.14Z" transform="translate(-46.06 -199.41)"/><path d="M443.4,281.06c1.14-8.05,5.12-10.42,9.47-10.42,5.49,0,8.81,3.13,9.09,10.42Zm32,3.22c0-16.38-10.33-23.3-22.64-23.3-13.26,0-23.58,9.09-23.58,25.67v.94c0,16.48,9.75,25,24.05,25,13,0,20.65-7.1,22.16-16.48H462.63c-.94,3.6-3.79,6.44-9.09,6.44-6,0-9.75-3.41-10.32-12.31h32.2Z" transform="translate(-46.06 -199.41)"/></svg>