<svg id="Layer_1" data-name="Layer 1" xmlns="http://www.w3.org/2000/svg" viewBox="0 0 1024 724"><path d="M683,745.91q-253.71,0-507.41.09c-3.75,0-4.59-.84-4.59-4.59q.15-357.4,0-714.82c0-3.75.84-4.59,4.59-4.59q507.41.15,1014.82,0c3.75,0,4.59.84,4.59,4.59q-.15,357.41,0,714.82c0,3.75-.84,4.59-4.59,4.59Q936.7,745.84,683,745.91ZM930.66,208v.28l.2-.14,14.94,14.1c2.68,4.09,6.65,6.9,10.09,10.23,14.78,14.3,29.65,28.49,44.49,42.73q21.4,20.85,42.85,41.66c1.26,1.21,2.39,3.05,4.38,3.08,8.21.09,16.42,0,24.62,0a47,47,0,0,0-8.55-8.28q-23-18.3-45.91-36.59a5.28,5.28,0,0,0-.83-1.21c-12.21-9.89-24.27-20-36.7-29.58-9.53-7.38-18.39-15.6-28.44-22.32-6.58-6.08-13.68-11.52-20.82-16.92-4-4.16-8.69-7.42-13.14-11-3.29-4.61-7.61-5.35-12.82-3.77a85.56,85.56,0,0,1-9.07,1.8c-1.89.08-2.78,2.63-5,2-5.55,0-10.76,1.88-16.08,3-12,2.6-24.08,4.49-35.83,8l-2.08.18c-5.72,1-11.5,1.82-17,3.84l-2.91.49A253.51,253.51,0,0,0,787,216.11l-2,.21c-5.73,1-11.5,1.76-17,3.79l-2.89.48c-2.05.34-4.25,0-6.06,1.39a26.61,26.61,0,0,0-3,.28q-38.61,8.13-77.21,16.29-60.51,12.81-121,25.67c-16.48,3.51-32.93,7.2-49.39,10.81a37.17,37.17,0,0,0-4,.44q-36.24,7.66-72.45,15.4-48.63,10.28-97.27,20.5c-12.4,2.63-24.79,5.34-37.3,8,.67,1.5,1.61,1.21,2.37,1.2q36.69-.3,73.37-.67a24.3,24.3,0,0,0,5.4-.85q61.59-14.82,123.16-29.72c18.9-4.58,37.75-9.36,56.63-14.05,2-.35,4-.58,5.89-1.05q84.33-20.41,168.63-40.94c14.68-3.61,29.53-6.54,44-11.07a3.05,3.05,0,0,0,2.7-.57l2.35-.62a1.84,1.84,0,0,0,2.47-.71l1.53-.29c3.5,0,6.73-1.13,10-2.27l2.17-.64a1.48,1.48,0,0,0,1.83-.36l2.17-.64,1.85-.26,2.14-.74,1.86-.26,2.15-.74a2.4,2.4,0,0,0,2.49-.45l2.38-.63a1.23,1.23,0,0,0,1.64-.37l2.27-.59a59.33,59.33,0,0,0,14-3.32l2.16-.63,1.87-.27,2.14-.73a2.39,2.39,0,0,0,2.49-.45l2.39-.64a28.21,28.21,0,0,0,2.89-.38q15.9-3.62,31.81-7.29c.05.79.48,1.83-.56,2.16-5.64,1.77-11.31,3.44-17,5.15l-49,15.95c-1.28.34-2.57.63-3.83,1q-33.15,10.71-66.27,21.44-47.31,15.38-94.61,30.78a14.34,14.34,0,0,0-2,.34q-66.66,21.5-133.31,43a3.39,3.39,0,0,0-2.82,2.49c8.16-1.14,16,.49,23.78-2.24,24.3-8.51,48.75-16.57,73.12-24.87,17.76-6.05,35.49-12.2,53.24-18.3,1.59-.46,3.2-.87,4.76-1.4q53.31-18.06,106.6-36.17,22.86-7.77,45.68-15.61L859.73,208c6.15-.58,11.66-3.4,17.44-5.2,2.7-.84,6-.82,7.84-3.67l12.9-3-9,5.91a125.21,125.21,0,0,0-16.86,9,222.63,222.63,0,0,0-19.92,10.95l-97.32,52.53L672.11,319c.19.46.37.93.55,1.39,3.54,0,7.09.55,10.49-1.38q38.58-21.9,77.19-43.75c1.21-.55,2.47-1,3.62-1.66,18.57-10.44,37.21-20.76,55.66-31.4,11.52-6.64,23.48-12.54,34.57-19.91A163.9,163.9,0,0,0,873,211.86a97.79,97.79,0,0,0,16-9c5.7-1.88,10.5-5.49,15.69-8.35,2.31-1.27,4.46-2.88,6.42.38-.46,9.06-2.16,18-2.06,27.13-2.43,17.64-3.78,35.39-5,53.14-1.36,13.84-2.7,27.69-4.12,41.53-.27,2.58,1.09,3.17,3.2,3.18,6,0,11.94,0,17.91.1,2.34,0,3.31-.82,3.06-3.25q-2.14-20.76-4.18-41.54c-1.21-17.77-3-35.48-5-53.18l-2.37-26.83c.57-.66,1.18-1.12,1.75,0,1.18,2.2,1.85.06,2.72-.3l12.23,11.67a.52.52,0,0,0,.48.44l0,.37.37,0A.8.8,0,0,0,930.66,208Zm1.56,13.93a82.94,82.94,0,0,0-7.67-12.33c-.49-.69-.53-2.17-1.63-1.74-.46.18-.16,1.8.92,2.32a68.63,68.63,0,0,0,7,12,49.6,49.6,0,0,0,6,10c8,14.55,16.5,28.83,25.28,42.93q12.42,21.31,24.82,42.65c1.63,2.83,3.86,2.54,7.13,1.65l-28.28-44.26c-9-14.86-18.18-29.65-27.91-44.08A45,45,0,0,0,932.22,221.89ZM898.9,205a152.4,152.4,0,0,0-14.54,16.95C869,239.4,853.74,257,839.12,275.09a11.72,11.72,0,0,0-1.53,1.27c-10.33,12.11-20.69,24.21-30.93,36.41-1.8,2.14-4.34,3.85-5.31,7.41,3-.58,5.58.69,7.72-2,11.29-14.34,22.7-28.58,34.08-42.85,14.7-17.37,28.86-35.18,42.88-53.1,4.58-5.45,9.4-10.72,13.25-16.76,1-.42,1.27-1.33,1.6-2.34C900,203.57,899,203.81,898.9,205ZM518.2,512c.46,1.25,1.56,1,2.49,1q12.15,0,24.28-.14c1.77-1.22.9-3.06.91-4.58.09-12.66,0-25.32,0-38,0-37.82-.09-75.63.11-113.45,0-4.93-1.49-6.34-6.2-6a101.26,101.26,0,0,1-15.48,0c-4.89-.38-6.53.9-6.47,6.21.3,28.15.12,56.31.14,84.47Q518.07,476.73,518.2,512Zm354.68.8c1.93-6.65.23-13.45.88-20.15.34-3.51-1-4.58-4.48-4.53-13.32.18-26.65,0-40,.13-3.41,0-4.69-.91-4.63-4.49q.27-18.74,0-37.48c0-3.49,1.05-4.65,4.55-4.57,9,.21,18,0,27,.12,2.81,0,3.86-.92,3.8-3.73-.14-6-.16-12,0-18,.08-3-.87-4.09-4-4-8.82.18-17.66-.09-26.49.13-3.6.09-5-.82-4.9-4.69q.38-15.5,0-31c-.1-3.88,1.31-4.74,4.91-4.69,12.32.19,24.66,0,37,.14,3.32.05,4.38-1,4.25-4.29a144.38,144.38,0,0,1,0-16c.32-4.6-1.56-5.56-5.78-5.52-20.83.18-41.66.27-62.48-.05-5.27-.08-6.31,1.66-6.3,6.55.17,50,.1,100,.13,149.94,0,1.79-.48,3.68.66,5.35.36,1,1.19,1,2,1ZM620,512.84c2.41.61,4.55-.68,6.84-1,12.42-1.57,21.55-7.94,27.28-19.05,4.7-9.1,5.84-19,5.89-29,.11-21,0-41.94,0-62.91a95.74,95.74,0,0,0-2-19.77c-3.66-17.71-17.8-29.61-35.91-30-13.81-.26-27.63,0-41.43-.3-3.78-.07-4.82,1.15-4.79,4.84.18,16.64.07,33.29.08,49.93q.06,53.17.15,106.35c.5,1.19,1.59,1,2.54,1Q599.29,512.94,620,512.84Zm-279,0c9-1,17.73-2.47,24.6-9.1,15-14.52,15.23-32.83,12.49-51.52-1.65-11.28-9.22-18.93-18.84-24.77,4.37-2.95,8-5.89,10.74-10.05,6.84-10.45,7-22,5.87-33.72-1.81-19.11-16.12-32.19-35.17-32.5-14.15-.23-28.3,0-42.44-.35-4.2-.09-5.29,1.23-5.28,5.34.15,37.62.07,75.24.1,112.86,0,14.31.1,28.63.16,42.94.46,1.25,1.57,1,2.5,1Q318.38,512.94,341,512.84Zm151.64.15c-.42-1.66-.68-2.95-1.07-4.19C484.75,487.26,478,465.71,471,444.21c-1-3-1-4.72,2.24-6.83a29.91,29.91,0,0,0,11.37-14.14c5-12.43,5-25.38,3.15-38.26-3.23-22.37-16.49-31.25-35.25-33.82-14.69-2-29.56-.56-44.34-1-4.22-.12-5,1.62-4.95,5.33.18,10.65.06,21.32.06,32,0,40.14.07,80.28-.1,120.42,0,4.22,1.19,5.43,5.3,5.2a168.5,168.5,0,0,1,18,0c3.78.2,4.79-1.05,4.75-4.76-.18-17-.12-34,0-51,0-3.29-1.32-7.17.72-9.7,1.67-2.06,5.53,0,8.07-.94,4.46-1.69,5.78.39,6.87,4.18,5.57,19.48,11.35,38.89,17,58.35.59,2.06.87,3.8,3.63,3.77C475.72,512.93,484,513,492.65,513Zm257.82-11.88c.85,1.64,1.58,2.91,2.19,4.24,3.63,7.88,3.62,7.88,12.31,7.65a2.78,2.78,0,0,1,.5,0c2.91.41,3.66-1,3.65-3.74q-.11-37.72,0-75.45c0-2.64-.61-3.9-3.61-3.86-12.65.13-25.31.1-38,0-2.49,0-3.65.64-3.58,3.34.14,5.5.15,11,0,16.49-.07,2.77,1.2,3.36,3.63,3.27,3.65-.14,7.32,0,11-.05,1.89,0,3.23.27,3.22,2.63,0,8.31.47,16.66-1.69,24.8-1.9,7.11-6.07,9.93-14.11,9.72-6.64-.18-9.71-2.91-11.31-10.29A28.71,28.71,0,0,1,714,474q-.06-42.22,0-84.44a25.42,25.42,0,0,1,.69-6.42c1.24-4.87,3.35-8.77,9-9.2,8.77-.68,12.36,1.07,15,7.51,2.52,6.1,2.5,12.68,2.9,19.1.16,2.47.16,3.6,3,3.53q10-.24,20,0c2.67.06,3.47-1,3.43-3.5a129.32,129.32,0,0,0-.91-16.91c-4.92-32.8-37.43-42.78-61.65-30.08-13.92,7.3-19.12,20.84-19.29,36-.28,26.48,0,53-.1,79.45a77.45,77.45,0,0,0,1,14.91c4.21,22,21.35,34.76,44.49,30.37C739.72,512.72,745.18,507.34,750.47,501.11Zm234,11.72c11.33,0,22.65-.13,34,.08,3.56.07,4.63-1.06,4.44-4.53a133.68,133.68,0,0,1,0-15c.19-3.23-1.07-3.88-4-3.85q-18.23.18-36.47,0c-2.2,0-5.4,1.25-6.41-.91-.93-2,1.86-3.91,3.13-5.77,13.81-20.17,27.92-40.16,38.23-62.47,6.27-13.58,9.68-27.94,7.07-42.68-4.57-25.75-32.69-35.59-55.42-25.11-18.7,8.61-23.1,26.75-22.1,43.82.16,2.72,2,2.13,3.58,2.14,6.33.05,12.66-.1,19,.08,2.85.08,3.85-.86,3.67-3.7a49.52,49.52,0,0,1,.84-13.42c1.41-6.66,5.91-10.48,12.11-10.5s10.44,3.67,11.88,10.58a37.87,37.87,0,0,1,.4,12.39c-1.15,9.73-4.55,18.7-8.8,27.4C980,441.05,967.87,459.22,955,476.81c-7.08,9.71-10.49,19.51-9.25,31.37.37,3.53.82,4.85,4.69,4.75C961.8,512.65,973.13,512.83,984.45,512.83Zm-59.88-61.18c0-19-.08-38,.08-57,0-3.48-.91-4.68-4.46-4.49a131.24,131.24,0,0,1-16,0c-4.07-.28-5,1.17-4.94,5,.17,23,.08,46,.08,69,0,14.83.08,29.66-.05,44.48,0,3.19.76,4.45,4.19,4.27a139.4,139.4,0,0,1,16.48,0c3.89.24,4.72-1.16,4.69-4.8C924.48,489.31,924.57,470.48,924.57,451.65Zm147.22-.72c0-18.81-.07-37.61.07-56.41,0-3.35-.71-4.81-4.35-4.64-5.65.27-11.31.21-17,0-2.73-.08-3.84.65-3.83,3.59q.1,57.92,0,115.82c0,3,1.1,3.63,3.79,3.55,5.65-.16,11.33-.27,17,0,3.65.19,4.42-1.2,4.39-4.57C1071.72,489.2,1071.79,470.06,1071.79,450.93ZM921.5,557.45l1.16-.16c1.24,6.29,2.38,12.61,3.78,18.87.27,1.2-.23,3.39,2,3.43s2.28-1.89,2.6-3.53c1.36-6.89,2.77-13.77,4.17-20.65a155.47,155.47,0,0,1,.87,20.05c0,2.14-.5,4.3,3,4.28,3.77,0,2.77-2.53,2.78-4.46.06-10,.08-20,0-29.95,0-1.85,1.17-4.89-2.66-4.41-2.52.32-6.07-1.84-6.71,3.32s-2.24,10.51-3.43,15.76A84.51,84.51,0,0,1,925,544c-.82-4.92-4.49-2.71-7.06-3.07-3-.41-2.49,1.93-2.5,3.68,0,10.49,0,21,0,31.45,0,2.32.28,3.7,3.18,3.7,3.13,0,3-1.81,3-3.9C921.48,569.71,921.5,563.58,921.5,557.45Zm-467.83-.59,1-.12c1.33,6.45,2.63,12.91,4,19.36.32,1.49,0,3.71,2.49,3.58,2.12-.12,1.81-2.13,2.09-3.46,1.42-6.79,2.73-13.6,4.07-20.41a158.42,158.42,0,0,1,.79,19.79c0,2.26-.2,4.3,3.19,4.27,3.19,0,2.87-2,2.87-4q0-15.5,0-31c0-2,.36-4.36-2.81-4-2.45.3-5.83-1.62-6.56,3.05-.82,5.3-2.18,10.51-3.31,15.76a65.22,65.22,0,0,1-4.34-15.7c-.7-4.74-4.07-2.81-6.51-3.1-3.18-.38-2.79,2-2.79,4q0,15.48,0,31c0,2-.33,4,2.88,4s2.92-2.05,2.92-4.08Zm246.46,2.24-.88.19c-1.84-5-3.8-10.07-5.45-15.18-.9-2.77-2.55-3.49-5.22-3.27-3.27.26-2.41,2.64-2.42,4.44-.06,10,0,19.94,0,29.91,0,2.26-.61,4.73,3.23,4.66s2.88-2.81,3-4.9c.31-4.8-.5-9.67.89-14.5a173.55,173.55,0,0,1,6.32,16.61c.8,2.48,2.34,2.85,4.54,2.72,2.58-.14,2.25-2,2.25-3.6,0-10.63,0-21.26,0-31.9,0-2-.18-3.49-2.88-3.48s-3.5,1-3.44,3.53C700.22,549.25,700.13,554.17,700.13,559.1Zm-85-.32-.86.27c-1.86-5.09-3.89-10.14-5.51-15.31-1-3.06-3.06-3-5.45-2.84-2.94.23-2.14,2.52-2.15,4.17q-.09,15,0,30c0,2.19-.81,4.8,3.11,4.82,3.71,0,3.4-2.29,3.39-4.66V559.85a98.18,98.18,0,0,1,7.08,17.32c.81,2.53,2.49,2.77,4.64,2.62,2.48-.17,2.26-2,2.27-3.66,0-10.67,0-21.33,0-32,0-2.26-.61-3.33-3.1-3.34s-3.56.89-3.49,3.5C615.23,549.12,615.13,554,615.13,558.78Zm444.05-187v-.17h2.49c10.13,0,10.23,0,10.08-10.13-.06-4.42,2-10.23-.92-12.9s-8.58-.72-13-.76c-11.12-.09-11.22,0-11.08,11.1,0,4.1-1.86,9.52.9,11.93C1050,372.9,1055.22,371.61,1059.18,371.79Zm-147.43,0h3c9.83,0,9.9,0,9.8-9.88,0-4.28,1.83-9.85-.74-12.51-2.81-2.91-8.48-.9-12.89-1-11.56-.15-11.57,0-11.57,11.05C899.34,371.75,899.34,371.75,911.75,371.75ZM321.22,558.69c2,1.33,2,3.14,2.56,4.62,1.63,4.54,3.15,9.11,4.63,13.69.74,2.3,2.24,3,4.55,2.81,3-.2,2.22-2.41,2.23-4,.06-10.48,0-21,.07-31.43,0-2.55-.75-3.54-3.41-3.52s-2.83,1.54-2.81,3.54c0,4.93,0,9.85,0,14.77a90.93,90.93,0,0,1-6.74-15.85c-1-3-3.17-2.42-5.26-2.34-2.68.09-2,2.23-2,3.71,0,10.65,0,21.29-.06,31.94,0,2.27.61,3.28,3.08,3.26s3.19-.92,3.15-3.24C321.15,570.79,321.22,565,321.22,558.69ZM827.57,560c0-5.16-.07-10.32,0-15.48,0-2.35-.39-3.67-3.23-3.7s-3.76,1.15-3.59,3.85,0,5.33.05,8c.1,2.33-.36,3.71-3.2,3.77-3.06.06-3.65-1.37-3.52-4,.14-2.82-.08-5.66,0-8.48.12-2.45-1-3.18-3.27-3.12-2,.06-3.56.16-3.54,2.86q.14,16.47,0,33c0,2.88,1.61,3.08,3.87,3.14,2.65.08,3-1.35,2.93-3.45-.08-3.33.07-6.66,0-10-.09-2.36.36-3.64,3.21-3.69,3,0,3.66,1.25,3.53,3.88-.16,3.16,0,6.33-.06,9.49-.06,2.25.17,3.78,3.12,3.79s3.75-1.17,3.69-3.86C827.49,570.64,827.57,565.31,827.57,560ZM414,560c0,5.33.1,10.65,0,16-.06,2.56.34,4,3.46,3.93s3.65-1.4,3.51-4a64.38,64.38,0,0,1,0-8c.1-1.41-1.11-3.72,1.58-3.92,2.05-.15,2,1.87,2.39,3.22,1.06,3.49,2,7,3.11,10.51.93,3,3.52,2.25,5.46,1.92,2.85-.49,1.14-2.51.75-3.89-1-3.67-2.2-7.32-3.38-10.95-.47-1.47-.7-2.59.58-4,4.23-4.69,3.61-10.28,1.45-15.42-2-4.76-6.89-4.48-11.25-4.53-1.5,0-3,.1-4.49,0-2.37-.19-3.24.8-3.19,3.17C414.11,549.34,414,554.67,414,560Zm173.6.17c0-3.32.15-6.66,0-10-.33-6.32-3.93-9.74-10.17-9.87-5.93-.13-9.79,3.13-10.1,9.31a206.19,206.19,0,0,0,0,21c.35,6.42,4.19,9.47,10.57,9.32,5.9-.15,9.3-3.44,9.7-9.75C587.8,566.83,587.62,563.49,587.63,560.16Zm185.81-.52h-.23c.19,4.31,0,8.68.67,12.92.88,5.71,6,8.75,11,7,2-.71,3.66-3.19,6.09-.08.89,1.13,2.15-.6,2.15-2.16,0-3.66,0-7.32,0-11,0-6.71,0-6.76-6.76-6.5-1.44,0-3.62-.94-3.93,1.71-.22,1.85-.09,3.23,2.36,4.12,2.86,1,1.5,3.94,1.12,6.09a2.34,2.34,0,0,1-3,2c-2.26-.46-2.71-2.34-2.74-4.2-.08-6.32-.06-12.65,0-19,0-2.54,1-4.29,4-3.62,2.11.48,2.12,2.43,2.18,4,.12,3,2.12,2.78,4.18,2.83,3,.08,2.51-2,2.46-3.79-.19-5.84-3.93-9.44-9.91-9.63-5.17-.17-9.12,3.3-9.56,8.8C773.21,552.63,773.44,556.14,773.44,559.64Zm-373.26.86h0c0-3.82.21-7.65,0-11.46-.37-5.48-4.08-8.71-9.58-8.73-6,0-10.06,3-10.32,8.51-.35,7.46-.34,15,0,22.42.23,5.5,4.37,8.73,10.12,8.67s9.48-3.25,9.83-8.95C400.36,567.49,400.18,564,400.18,560.5Zm605.67,19.12c3.44.56,3.34-1.43,2.88-3.91-2-10.6-4-21.2-5.77-31.84-.44-2.68-1.78-3.17-4.07-3s-4.95-.74-5.58,3c-1.85,11-3.91,21.9-6,32.82-.4,2.14.09,2.87,2.4,3,3.47.27,4.31-1.35,4.34-4.36,0-2.61.49-4.66,4.21-4.58,3.47.07,3.58,1.88,3.82,4.36C1002.32,577.37,1002.12,580.21,1005.85,579.62Zm-277.59.29c7.9.11,12.53-6.42,9.87-13.89-1.1-3.1-3.28-5.34-5.64-7.5a51.08,51.08,0,0,1-6-6c-1.29-1.65-1.55-3.95.57-5.28,1.88-1.18,3.66-.3,4.48,1.67,1.35,3.23,3.74,1.74,5.44,1,2.52-1.08.8-3.07.22-4.62a7.17,7.17,0,0,0-6-4.74c-4.35-.68-8.39-.24-10.95,4-2.33,3.86-1.7,9.86,1.64,13.49,2.81,3.06,6.09,5.68,8.85,8.78,1.79,2,2.4,4.69-.46,6.4-2.61,1.57-4.27-.37-4.83-2.58-1-3.83-3.58-2.25-5.53-1.75-3,.76-1.27,3.08-.75,4.47C720.75,577.45,723.63,580,728.26,579.91ZM955.4,560.23c0,5.15.06,10.31,0,15.46,0,2.39,0,4.08,3.31,4.08,3.12,0,3.58-1.38,3.43-3.93s.15-5-.08-7.47c-.3-3.22.34-4.8,4.16-4.66,4.1.14,7.87-1.21,9.71-5.54,4-9.5-.93-17.2-11.18-17.3-2,0-4,.14-6,0-2.67-.24-3.46.88-3.39,3.44C955.51,549.59,955.41,554.91,955.4,560.23Zm65.27-.32h-.16c0,3.49-.25,7,.06,10.46.61,6.86,4.12,9.81,10.8,9.5,5.64-.26,8.81-3.85,9.1-10.3.16-3.78-1.63-5.2-5.12-4.12-2.67.83-1.13,3-1.57,4.6-.5,1.76-.71,3.68-3.19,3.78a2.72,2.72,0,0,1-3-2.65,99.07,99.07,0,0,1,0-22.31,2.24,2.24,0,0,1,2.29-2.17c1.46-.07,2.71.25,3.16,1.79.36,1.26.52,2.58.79,3.87.53,2.62,2.62,1.29,4,1.52s2.43-.15,2.63-2c.6-5.44-3-10.66-8.15-11.38-6.49-.9-11,2.21-11.63,8.49A108,108,0,0,0,1020.67,559.91ZM496.28,541c-3.24-.8-4.39.9-4.89,3.84-1.77,10.48-3.54,21-5.64,31.39-.65,3.25.46,3.62,3.19,3.68,3.83.07,3.26-2.83,3.38-4.87.26-4.48,3.08-4.63,6.19-3.81,2.58.68,1.75,3.41,1.9,5.15.32,3.71,2.63,3.82,5.23,3.42,3.16-.49,1.44-2.92,1.2-4.29-1.75-10.15-3.89-20.24-5.5-30.41C500.81,541.68,499.72,540.19,496.28,541ZM349,559.93c0,5.32.08,10.64,0,16-.05,2.45.14,4.08,3.37,4,2.95-.06,3.75-1.22,3.6-3.9s.18-5.68-.09-8.48c-.36-3.62.74-5.31,4.61-4.74,2.34.35,4.22,0,4.25-3.22s-1.89-3.22-4.22-3.33c-1.6-.07-3.73,1-4.53-1.7-1.52-5.18.19-7.57,5.62-7.6.83,0,1.67-.09,2.49,0,2.43.23,3.19-.92,3.15-3.23s-1-2.89-3-2.84c-3.83.07-7.66.15-11.47,0-2.77-.14-3.86.76-3.76,3.65C349.18,549.61,349.05,554.77,349,559.93Zm171.36,3.3v12c0,2.36-.33,4.61,3.37,4.68s3.46-2,3.44-4.46c0-7.66,0-15.31,0-23,0-3.12-.39-6.25,4.42-5.61,2.09.28,2.32-1.3,2.31-3s-.24-3-2.35-3h-15c-1.65,0-2.48.77-2.41,2.42.07,1.41-.45,3.64,1.7,3.44,5.1-.46,4.59,2.79,4.54,6C520.35,556.24,520.4,559.74,520.4,563.23Zm324.7-.08c0,4.33.14,8.66-.05,13-.12,2.86.93,3.73,3.74,3.74s3.26-1.27,3.24-3.65c-.1-8.15,0-16.3-.07-24.45,0-2.86-.19-5.41,3.95-4.9,2.16.27,2.26-1.42,2.22-3,0-1.33.08-2.88-1.83-2.91-5.16-.07-10.31-.06-15.47,0-1.94,0-1.9,1.51-1.86,2.86s-.33,3.22,1.58,3c5.63-.61,4.52,3.24,4.55,6.39C845.12,556.5,845.1,559.83,845.1,563.15Zm213,.29c0,4.16.13,8.33,0,12.48-.12,2.71.58,3.8,3.55,3.85,3.21.05,3.42-1.47,3.39-4-.11-8.32,0-16.64-.07-25,0-2.34-.12-4.46,3.24-3.94,2.62.41,2.93-1.13,2.95-3.27s-.89-2.85-3-2.8q-6.5.17-13,0c-2.19-.06-3.36.36-3.32,3,.05,2.32.68,3.48,3.11,3.12,2.89-.43,3.24,1.21,3.18,3.55C1058,554.79,1058.1,559.12,1058.1,563.44ZM546,560c0,5.49.06,11,0,16.46,0,2.19.41,3.5,3,3.34,2.08-.12,4,.12,4-3q-.13-16.47,0-32.94c0-3-1.64-3-3.84-3.11-2.44-.08-3.17.94-3.12,3.25C546.08,549.39,546,554.71,546,560Zm348.41.42c0,5.3.11,10.61,0,15.91-.08,2.68,1,3.41,3.49,3.35,2.21-.05,3.3-.51,3.28-3q-.15-16.4,0-32.81c0-2.44-.88-3.08-3.19-3.07s-3.68.42-3.59,3.24C894.55,549.52,894.42,555,894.42,560.46Zm-135.57.19c0-5.49-.09-11,0-16.46.07-2.7-1.12-3.35-3.59-3.39-2.66-.06-3.4,1-3.38,3.5.11,10.64.09,21.29,0,31.93,0,2.39.44,3.63,3.25,3.63s3.82-.92,3.72-3.75C758.73,571,758.85,565.8,758.85,560.65Zm-94-.42c0,5.33.08,10.65,0,16,0,2.42.5,3.67,3.29,3.63,2.58-.05,3.54-1,3.52-3.52q-.11-16,0-31.94c0-2.48-.65-3.59-3.36-3.56-2.56,0-3.55.83-3.47,3.46C665,549.59,664.84,554.91,664.84,560.23Zm-370.93-.29c0,5.48.09,11,0,16.43-.06,2.55.77,3.52,3.41,3.49s3-1.28,3-3.42q-.08-16.17,0-32.36c0-2.31-.75-3.25-3.15-3.25s-3.28.8-3.23,3.18C294,549.32,293.91,554.63,293.91,559.94Zm354-6.75c-1.29.06-2.33.58-2.31,1.28.21,5.35-3.75,3.16-6.26,3.59-1.45.26-3.73-.78-3.75,1.9s2.26,1.72,3.73,2c1.88.33,5.05-.94,5.47.93,1.89,8.37,4.64,2.5,7.1.66,1.37-1,3.82-1.88,2.52-4.12C652.8,556.71,650.13,554.91,647.87,553.19ZM886,559.87c-.57-2.58-3.17-3.65-5.06-5.43-2.55-2.41-4.35-1.92-4.47,1.31-.09,2.3-.86,2.39-2.52,2.33-1.49-.06-3,0-4.49,0-1.3,0-2.32.38-2.25,2s1.15,1.85,2.41,1.88c.83,0,1.67,0,2.49,0,2.37.19,5.93-1.38,5.13,3.55-.11.73.82,1.34,1.79,1.36C880.7,566.88,885.84,562,886,559.87Z" transform="translate(-171 -22)" style="fill:#fefefe"/><path d="M293.24,512c-.06-14.31-.15-28.63-.16-42.94,0-37.62.05-75.24-.1-112.86,0-4.11,1.08-5.43,5.28-5.34,14.14.32,28.29.12,42.44.35,19.05.31,33.36,13.39,35.17,32.5,1.11,11.67,1,23.27-5.87,33.72-2.72,4.16-6.37,7.1-10.74,10.05,9.62,5.84,17.19,13.49,18.84,24.77,2.74,18.69,2.55,37-12.49,51.52-6.87,6.63-15.64,8.13-24.6,9.1-1.54-1.47-3.45-.84-5.2-.84C321.62,512,307.43,512,293.24,512ZM321,464.51c0,4-.11,8,0,12s-1.61,8.76.77,11.64c2.15,2.61,6.91.64,10.5,1,10,.89,15.66-3.1,18.41-12.65a44.34,44.34,0,0,0,1.1-16.84c-.84-8.4-3.94-15.69-13-18-4.44-1.14-9.19-1-13.79-1.54-3-.33-4.15.86-4.07,4C321.09,450.84,321,457.68,321,464.51Zm0-69.18c0,5.83,0,11.66,0,17.48,0,1.4-.5,3,1.32,3.92,3.54,1.73,16.25-.41,19.47-3.34,8.52-7.74,9.8-23.21,2.82-33.34a10.84,10.84,0,0,0-3.59-3.23c-5.16-3.13-10.79-2.62-16.39-2.81-2.88-.09-3.77,1.09-3.7,3.85C321.07,383.68,321,389.51,321,395.33Z" transform="translate(-171 -22)" style="fill:#a6a7aa"/><path d="M492.65,513c-8.62,0-16.93-.06-25.23,0-2.76,0-3-1.71-3.63-3.77-5.6-19.46-11.38-38.87-17-58.35-1.09-3.79-2.41-5.87-6.87-4.18-2.54,1-6.4-1.12-8.07.94-2,2.53-.7,6.41-.72,9.7-.08,17-.14,34,0,51,0,3.71-1,5-4.75,4.76a168.5,168.5,0,0,0-18,0c-4.11.23-5.31-1-5.3-5.2.17-40.14.1-80.28.1-120.42,0-10.65.12-21.32-.06-32-.07-3.71.73-5.45,4.95-5.33,14.78.44,29.65-1,44.34,1,18.76,2.57,32,11.45,35.25,33.82,1.86,12.88,1.89,25.83-3.15,38.26a29.91,29.91,0,0,1-11.37,14.14c-3.28,2.11-3.22,3.78-2.24,6.83,6.94,21.5,13.74,43.05,20.57,64.59C492,510,492.23,511.33,492.65,513ZM431.13,398.45v14c0,12.33.1,13,12.21,11.15,9.32-1.4,15-2.47,17-14.86a65.75,65.75,0,0,0,.36-18.36c-1.07-9.18-4.94-14.06-11.24-15.23A74.85,74.85,0,0,0,435.1,374c-3,0-4.11.93-4,4C431.26,384.81,431.13,391.63,431.13,398.45Z" transform="translate(-171 -22)" style="fill:#a6a7aa"/><path d="M576.07,512q-.08-53.18-.15-106.35c0-16.64.1-33.29-.08-49.93,0-3.69,1-4.91,4.79-4.84,13.8.26,27.62,0,41.43.3,18.11.36,32.25,12.26,35.91,30a95.74,95.74,0,0,1,2,19.77c0,21,.06,41.94,0,62.91-.05,10-1.19,19.92-5.89,29-5.73,11.11-14.86,17.48-27.28,19.05-2.29.29-4.43,1.58-6.84,1-1.54-1.47-3.46-.84-5.21-.84C601.86,511.94,589,512,576.07,512Zm27-80.41c0,15.48-.05,30.95,0,46.42,0,3.46-1.41,7.65.68,10.18s6.26.64,9.51.95c10.92,1,17.88-4.81,18.58-15.66.28-4.31.19-8.65.19-13,0-23.29,0-46.59-.16-69.88-.07-8.79-4.44-14.44-11.66-15.64-3.74-.61-7.6-.49-11.37-.94-4.4-.52-6,.83-5.92,5.64C603.3,397,603.11,414.26,603.11,431.56Z" transform="translate(-171 -22)" style="fill:#a6a7aa"/><path d="M750.47,501.11c-5.29,6.23-10.75,11.61-18.92,13.16-23.14,4.39-40.28-8.39-44.49-30.37a77.45,77.45,0,0,1-1-14.91c.06-26.49-.18-53,.1-79.45.17-15.16,5.37-28.7,19.29-36,24.22-12.7,56.73-2.72,61.65,30.08a129.32,129.32,0,0,1,.91,16.91c0,2.53-.76,3.56-3.43,3.5q-10-.22-20,0c-2.85.07-2.85-1.06-3-3.53-.4-6.42-.38-13-2.9-19.1-2.67-6.44-6.26-8.19-15-7.51-5.63.43-7.74,4.33-9,9.2a25.42,25.42,0,0,0-.69,6.42q0,42.21,0,84.44a28.71,28.71,0,0,0,.66,5.92c1.6,7.38,4.67,10.11,11.31,10.29,8,.21,12.21-2.61,14.11-9.72,2.16-8.14,1.64-16.49,1.69-24.8,0-2.36-1.33-2.66-3.22-2.63-3.67.06-7.34-.09-11,.05-2.43.09-3.7-.5-3.63-3.27.16-5.49.15-11,0-16.49-.07-2.7,1.09-3.36,3.58-3.34,12.66.09,25.32.12,38,0,3,0,3.61,1.22,3.61,3.86q-.09,37.72,0,75.45c0,2.72-.74,4.15-3.65,3.74a2.78,2.78,0,0,0-.5,0c-8.69.23-8.68.23-12.31-7.65C752.05,504,751.32,502.75,750.47,501.11Z" transform="translate(-171 -22)" style="fill:#a6a7aa"/><path d="M797,512c-1.14-1.67-.66-3.56-.66-5.35,0-50,0-100-.13-149.94,0-4.89,1-6.63,6.3-6.55,20.82.32,41.65.23,62.48.05,4.22,0,6.1.92,5.78,5.52a144.38,144.38,0,0,0,0,16c.13,3.26-.93,4.34-4.25,4.29-12.32-.17-24.66.05-37-.14-3.6-.05-5,.81-4.91,4.69q.38,15.5,0,31c-.09,3.87,1.3,4.78,4.9,4.69,8.83-.22,17.67.05,26.49-.13,3.11-.06,4.06,1,4,4-.17,6-.15,12,0,18,.06,2.81-1,3.77-3.8,3.73-9-.13-18,.09-27-.12-3.5-.08-4.6,1.08-4.55,4.57q.26,18.74,0,37.48c-.06,3.58,1.22,4.53,4.63,4.49,13.33-.15,26.66,0,40-.13,3.5,0,4.82,1,4.48,4.53-.65,6.7,1,13.5-.88,20.15-1.58-1.38-3.49-.77-5.25-.78Q832.34,511.93,797,512Z" transform="translate(-171 -22)" style="fill:#a6a7aa"/><path d="M984.45,512.83c-11.32,0-22.65-.18-34,.1-3.87.1-4.32-1.22-4.69-4.75-1.24-11.86,2.17-21.66,9.25-31.37,12.83-17.59,24.93-35.76,34.55-55.41,4.25-8.7,7.65-17.67,8.8-27.4a37.87,37.87,0,0,0-.4-12.39C996.55,374.7,992.4,371,986.11,371s-10.7,3.84-12.11,10.5a49.52,49.52,0,0,0-.84,13.42c.18,2.84-.82,3.78-3.67,3.7-6.32-.18-12.65,0-19-.08-1.54,0-3.42.58-3.58-2.14-1-17.07,3.4-35.21,22.1-43.82,22.73-10.48,50.85-.64,55.42,25.11,2.61,14.74-.8,29.1-7.07,42.68-10.31,22.31-24.42,42.3-38.23,62.47-1.27,1.86-4.06,3.78-3.13,5.77,1,2.16,4.21.89,6.41.91q18.24.17,36.47,0c2.91,0,4.17.62,4,3.85a133.68,133.68,0,0,0,0,15c.19,3.47-.88,4.6-4.44,4.53C1007.1,512.7,995.78,512.83,984.45,512.83Z" transform="translate(-171 -22)" style="fill:#5c5c5f"/><path d="M518.2,512q-.09-35.24-.17-70.46c0-28.16.16-56.32-.14-84.47-.06-5.31,1.58-6.59,6.47-6.21a101.26,101.26,0,0,0,15.48,0c4.71-.35,6.23,1.06,6.2,6-.2,37.82-.11,75.63-.11,113.45,0,12.66,0,25.32,0,38,0,1.52.86,3.36-.91,4.58-1.35-1.37-3.08-.84-4.66-.85C532.94,511.94,525.57,512,518.2,512Z" transform="translate(-171 -22)" style="fill:#a6a7aa"/><path d="M924.57,451.65c0,18.83-.09,37.66.08,56.49,0,3.64-.8,5-4.69,4.8a139.4,139.4,0,0,0-16.48,0c-3.43.18-4.22-1.08-4.19-4.27.13-14.82.05-29.65.05-44.48,0-23,.09-46-.08-69,0-3.87.87-5.32,4.94-5a131.24,131.24,0,0,0,16,0c3.55-.19,4.49,1,4.46,4.49C924.49,413.66,924.57,432.66,924.57,451.65Z" transform="translate(-171 -22)" style="fill:#606163"/><path d="M558.42,275.32c-18.88,4.69-37.73,9.47-56.63,14.05q-61.56,15-123.16,29.72a24.3,24.3,0,0,1-5.4.85q-36.69.4-73.37.67c-.76,0-1.7.3-2.37-1.2,12.51-2.7,24.9-5.41,37.3-8q48.63-10.28,97.27-20.5,36.22-7.67,72.45-15.4a37.17,37.17,0,0,1,4-.44Z" transform="translate(-171 -22)" style="fill:#4ca8ae"/><path d="M1071.79,450.93c0,19.13-.07,38.27.07,57.41,0,3.37-.74,4.76-4.39,4.57-5.64-.3-11.32-.19-17,0-2.69.08-3.8-.58-3.79-3.55q.13-57.91,0-115.82c0-2.94,1.1-3.67,3.83-3.59,5.65.17,11.31.23,17,0,3.64-.17,4.38,1.29,4.35,4.64C1071.72,413.32,1071.79,432.12,1071.79,450.93Z" transform="translate(-171 -22)" style="fill:#5c5c5f"/><path d="M558.42,275.32,508.47,275c16.46-3.61,32.91-7.3,49.39-10.81q60.5-12.9,121-25.67,38.6-8.18,77.21-16.29a26.65,26.65,0,0,1,3-.28l5.87,0h12v.31c-14.45,4.53-29.3,7.46-44,11.07Q648.67,254,564.31,274.27C562.38,274.74,560.38,275,558.42,275.32Z" transform="translate(-171 -22)" style="fill:#a6ce43"/><path d="M1017.76,275.06q23,18.29,45.91,36.59a47,47,0,0,1,8.55,8.28c-8.2,0-16.41.06-24.62,0-2,0-3.12-1.87-4.38-3.08q-21.49-20.76-42.86-41.66Z" transform="translate(-171 -22)" style="fill:#4aa6ae"/><path d="M919.86,275.21Q921.93,296,924,316.75c.25,2.43-.72,3.29-3.06,3.25-6-.09-11.94-.07-17.91-.1-2.11,0-3.47-.6-3.2-3.18,1.42-13.84,2.76-27.69,4.12-41.53Z" transform="translate(-171 -22)" style="fill:#48a5ac"/><path d="M659.52,275.38c-17.75,6.1-35.48,12.25-53.24,18.3-24.37,8.3-48.82,16.36-73.12,24.87-7.8,2.73-15.62,1.1-23.78,2.24a3.39,3.39,0,0,1,2.82-2.49q66.63-21.57,133.31-43a14.34,14.34,0,0,1,2-.34Z" transform="translate(-171 -22)" style="fill:#56adb4"/><path d="M921.5,557.45c0,6.13,0,12.26,0,18.4,0,2.09.18,3.89-3,3.9-2.9,0-3.2-1.38-3.18-3.7.07-10.48,0-21,0-31.45,0-1.75-.48-4.09,2.5-3.68,2.57.36,6.24-1.85,7.06,3.07a84.51,84.51,0,0,0,4.15,16c1.19-5.25,2.78-10.45,3.43-15.76s4.19-3,6.71-3.32c3.83-.48,2.64,2.56,2.66,4.41.09,10,.07,20,0,29.95,0,1.93,1,4.44-2.78,4.46-3.54,0-3-2.14-3-4.28a155.47,155.47,0,0,0-.87-20.05c-1.4,6.88-2.81,13.76-4.17,20.65-.32,1.64-.25,3.57-2.6,3.53s-1.77-2.23-2-3.43c-1.4-6.26-2.54-12.58-3.78-18.87Z" transform="translate(-171 -22)" style="fill:#1baa55"/><path d="M453.67,556.86v18.91c0,2,.16,4-2.92,4.08s-2.88-2-2.88-4q0-15.48,0-31c0-2-.39-4.38,2.79-4,2.44.29,5.81-1.64,6.51,3.1a65.22,65.22,0,0,0,4.34,15.7c1.13-5.25,2.49-10.46,3.31-15.76.73-4.67,4.11-2.75,6.56-3.05,3.17-.38,2.81,2,2.81,4q0,15.48,0,31c0,2,.32,4-2.87,4-3.39,0-3.2-2-3.19-4.27a158.42,158.42,0,0,0-.79-19.79c-1.34,6.81-2.65,13.62-4.07,20.41-.28,1.33,0,3.34-2.09,3.46-2.52.13-2.17-2.09-2.49-3.58-1.37-6.45-2.67-12.91-4-19.36Z" transform="translate(-171 -22)" style="fill:#4aa6ae"/><path d="M1017.76,275.06l-17.4.1c-14.83-14.24-29.7-28.43-44.48-42.73-3.44-3.33-7.41-6.14-10.09-10.23l6-.25c10.05,6.72,18.91,14.94,28.44,22.32,12.43,9.61,24.49,19.69,36.7,29.58A5.28,5.28,0,0,1,1017.76,275.06Z" transform="translate(-171 -22)" style="fill:#a6ce43"/><path d="M659.52,275.38l-12-.46q47.31-15.39,94.61-30.78,33.12-10.75,66.27-21.44c1.26-.4,2.55-.69,3.84-1l4.37.54q-22.83,7.81-45.68,15.61-53.29,18.1-106.6,36.17C662.72,274.51,661.11,274.92,659.52,275.38Z" transform="translate(-171 -22)" style="fill:#afd452"/><path d="M700.13,559.1c0-4.93.09-9.85,0-14.77-.06-2.55.82-3.52,3.44-3.53s2.88,1.44,2.88,3.48c0,10.64,0,21.27,0,31.9,0,1.6.33,3.46-2.25,3.6-2.2.13-3.74-.24-4.54-2.72a173.55,173.55,0,0,0-6.32-16.61c-1.39,4.83-.58,9.7-.89,14.5-.13,2.09,1,4.82-3,4.9s-3.22-2.4-3.23-4.66c0-10,0-19.94,0-29.91,0-1.8-.85-4.18,2.42-4.44,2.67-.22,4.32.5,5.22,3.27,1.65,5.11,3.61,10.13,5.45,15.18Z" transform="translate(-171 -22)" style="fill:#a6ce43"/><path d="M615.13,558.78c0-4.83.1-9.66,0-14.48-.07-2.61.91-3.51,3.49-3.5s3.11,1.08,3.1,3.34c-.07,10.66,0,21.32,0,32,0,1.64.21,3.49-2.27,3.66-2.15.15-3.83-.09-4.64-2.62a98.18,98.18,0,0,0-7.08-17.32v15.37c0,2.37.32,4.68-3.39,4.66-3.92,0-3.1-2.63-3.11-4.82q-.06-15,0-30c0-1.65-.79-3.94,2.15-4.17,2.39-.19,4.48-.22,5.45,2.84,1.62,5.17,3.65,10.22,5.51,15.31Z" transform="translate(-171 -22)" style="fill:#4ca8ae"/><path d="M1059.18,371.79c-4-.18-9.22,1.11-11.55-.93-2.76-2.41-.85-7.83-.9-11.93-.14-11.12,0-11.19,11.08-11.1,4.45,0,10.18-1.85,13,.76s.86,8.48.92,12.9c.15,10.13,0,10.13-10.08,10.13h-2.49Z" transform="translate(-171 -22)" style="fill:#606163"/><path d="M911.75,371.75c-12.41,0-12.41,0-12.41-12.3,0-11.1,0-11.2,11.57-11.05,4.41.06,10.08-1.95,12.89,1,2.57,2.66.7,8.23.74,12.51.1,9.88,0,9.88-9.8,9.88Z" transform="translate(-171 -22)" style="fill:#606163"/><path d="M919.86,275.21l-15.87,0c1.24-17.75,2.59-35.5,5-53.14l5.82,0C916.84,239.73,918.65,257.44,919.86,275.21Z" transform="translate(-171 -22)" style="fill:#a3cc3e"/><path d="M321.22,558.69c0,6.28-.07,12.1,0,17.92,0,2.32-.75,3.22-3.15,3.24s-3.1-1-3.08-3.26c.08-10.65,0-21.29.06-31.94,0-1.48-.71-3.62,2-3.71,2.09-.08,4.28-.64,5.26,2.34a90.93,90.93,0,0,0,6.74,15.85c0-4.92,0-9.84,0-14.77,0-2,.07-3.52,2.81-3.54s3.44,1,3.41,3.52c-.09,10.47,0,20.95-.07,31.43,0,1.63.81,3.84-2.23,4-2.31.16-3.81-.51-4.55-2.81-1.48-4.58-3-9.15-4.63-13.69C323.25,561.83,323.24,560,321.22,558.69Z" transform="translate(-171 -22)" style="fill:#48a5ac"/><path d="M827.57,560c0,5.33-.08,10.66,0,16,.06,2.69-.76,3.88-3.69,3.86s-3.18-1.54-3.12-3.79c.09-3.16-.1-6.33.06-9.49.13-2.63-.49-3.93-3.53-3.88-2.85.05-3.3,1.33-3.21,3.69.12,3.33,0,6.66,0,10,.05,2.1-.28,3.53-2.93,3.45-2.26-.06-3.89-.26-3.87-3.14q.1-16.49,0-33c0-2.7,1.51-2.8,3.54-2.86,2.29-.06,3.39.67,3.27,3.12-.13,2.82.09,5.66,0,8.48-.13,2.6.46,4,3.52,4,2.84-.06,3.3-1.44,3.2-3.77-.1-2.66.11-5.34-.05-8s.63-3.89,3.59-3.85,3.28,1.35,3.23,3.7C827.5,549.66,827.57,554.82,827.57,560Z" transform="translate(-171 -22)" style="fill:#a3cc3e"/><path d="M414,560c0-5.32.08-10.65,0-16-.05-2.37.82-3.36,3.19-3.17,1.49.11,3,0,4.49,0,4.36,0,9.26-.23,11.25,4.53,2.16,5.14,2.78,10.73-1.45,15.42-1.28,1.42-1.05,2.54-.58,4,1.18,3.63,2.33,7.28,3.38,10.95.39,1.38,2.1,3.4-.75,3.89-1.94.33-4.53,1.06-5.46-1.92-1.09-3.49-2.05-7-3.11-10.51-.41-1.35-.34-3.37-2.39-3.22-2.69.2-1.48,2.51-1.58,3.92a64.38,64.38,0,0,0,0,8c.14,2.59-.46,4-3.51,4s-3.52-1.37-3.46-3.93C414.13,570.64,414,565.32,414,560Zm6.66-7.67c1.09,1.88-1.62,5.56,2.92,5.49,3.64-.06,4-2.77,4.08-5.55s-.52-5.41-4.16-5.41C418.94,546.86,421.89,550.56,420.69,552.32Z" transform="translate(-171 -22)" style="fill:#4ca8ae"/><path d="M587.63,560.16c0,3.33.17,6.67,0,10-.4,6.31-3.8,9.6-9.7,9.75-6.38.15-10.22-2.9-10.57-9.32a206.19,206.19,0,0,1,0-21c.31-6.18,4.17-9.44,10.1-9.31,6.24.13,9.84,3.55,10.17,9.87C587.78,553.5,587.63,556.84,587.63,560.16Zm-13.57-.34c0,3.31-.06,6.63,0,9.94,0,2.13.68,4.09,3.34,4s3.36-1.93,3.39-4.08c.07-6.46,0-12.93,0-19.39,0-2-.64-3.48-3.14-3.55s-3.59,1.25-3.61,3.6C574,553.52,574.07,556.67,574.06,559.82Z" transform="translate(-171 -22)" style="fill:#4aa6ae"/><path d="M773.44,559.64c0-3.5-.23-7,0-10.48.44-5.5,4.39-9,9.56-8.8,6,.19,9.72,3.79,9.91,9.63,0,1.74.54,3.87-2.46,3.79-2.06,0-4.06.2-4.18-2.83-.06-1.59-.07-3.54-2.18-4-2.94-.67-3.94,1.08-4,3.62,0,6.32-.06,12.65,0,19,0,1.86.48,3.74,2.74,4.2a2.34,2.34,0,0,0,3-2c.38-2.15,1.74-5-1.12-6.09-2.45-.89-2.58-2.27-2.36-4.12.31-2.65,2.49-1.66,3.93-1.71,6.76-.26,6.76-.21,6.76,6.5,0,3.66,0,7.32,0,11,0,1.56-1.26,3.29-2.15,2.16-2.43-3.11-4-.63-6.09.08-5,1.75-10.14-1.29-11-7-.66-4.24-.48-8.61-.67-12.92Z" transform="translate(-171 -22)" style="fill:#a3cc3e"/><path d="M400.18,560.5c0,3.49.18,7,0,10.46-.35,5.7-4,8.88-9.83,8.95s-9.89-3.17-10.12-8.67c-.31-7.46-.32-15,0-22.42.26-5.53,4.29-8.53,10.32-8.51,5.5,0,9.21,3.25,9.58,8.73.25,3.81,0,7.64,0,11.46ZM387,560.21c0,3.31,0,6.63,0,9.94,0,2,.66,3.57,3.08,3.67a3,3,0,0,0,3.32-3,145.87,145.87,0,0,0,.12-21.32c-.12-2.25-1.86-2.85-4-2.74-2.35.12-2.53,1.77-2.56,3.48C386.91,553.58,387,556.89,387,560.21Z" transform="translate(-171 -22)" style="fill:#4aa6ae"/><path d="M1005.85,579.62c-3.73.59-3.53-2.25-3.73-4.46-.24-2.48-.35-4.29-3.82-4.36-3.72-.08-4.18,2-4.21,4.58,0,3-.87,4.63-4.34,4.36-2.31-.18-2.8-.91-2.4-3,2-10.92,4.11-21.85,6-32.82.63-3.76,3.23-2.86,5.58-3s3.63.34,4.07,3c1.78,10.64,3.79,21.24,5.77,31.84C1009.19,578.19,1009.29,580.18,1005.85,579.62Zm-7.33-28.21c-2.17,3.22-1.38,7.05-2.39,10.47-.38,1.3-.67,3,1.82,3,2.75,0,2.31-1.54,2-3.24C999.48,558.29,999,554.9,998.52,551.41Z" transform="translate(-171 -22)" style="fill:#1baa55"/><path d="M728.26,579.92c-4.63.06-7.51-2.47-9-6.54-.52-1.39-2.21-3.71.75-4.47,2-.5,4.54-2.08,5.53,1.75.56,2.21,2.22,4.15,4.83,2.58,2.86-1.71,2.25-4.39.46-6.4-2.76-3.1-6-5.72-8.85-8.78-3.34-3.63-4-9.63-1.64-13.49,2.56-4.23,6.6-4.67,10.95-4a7.17,7.17,0,0,1,6,4.74c.58,1.55,2.3,3.54-.22,4.62-1.7.73-4.09,2.22-5.44-1-.82-2-2.6-2.85-4.48-1.67-2.12,1.33-1.86,3.63-.57,5.28a51.08,51.08,0,0,0,6,6c2.36,2.16,4.54,4.4,5.64,7.5C740.79,573.49,736.16,580,728.26,579.92Z" transform="translate(-171 -22)" style="fill:#a6ce43"/><path d="M955.41,560.23c0-5.32.1-10.64,0-16-.07-2.56.72-3.68,3.39-3.44,2,.17,4,0,6,0,10.25.1,15.21,7.8,11.18,17.3-1.84,4.33-5.61,5.68-9.71,5.54-3.82-.14-4.46,1.44-4.16,4.66.23,2.47-.07,5,.08,7.47s-.31,3.93-3.43,3.93c-3.29,0-3.35-1.69-3.31-4.08C955.46,570.54,955.4,565.38,955.41,560.23Zm6.44-8c1.06,2-1.73,5.82,3.3,5.69,3.77-.11,4.88-2.17,4.92-5.41,0-3.4-1-5.69-5-5.81C959.84,546.55,963.12,550.49,961.85,552.24Z" transform="translate(-171 -22)" style="fill:#1baa55"/><path d="M1020.67,559.91a108,108,0,0,1,.06-10.95c.65-6.28,5.14-9.39,11.63-8.49,5.11.72,8.75,5.94,8.15,11.38-.2,1.88-1.18,2.27-2.63,2s-3.51,1.1-4-1.52c-.27-1.29-.43-2.61-.79-3.87-.45-1.54-1.7-1.86-3.16-1.79a2.24,2.24,0,0,0-2.29,2.17,99.07,99.07,0,0,0,0,22.31,2.72,2.72,0,0,0,3,2.65c2.48-.1,2.69-2,3.19-3.78.44-1.56-1.1-3.77,1.57-4.6,3.49-1.08,5.28.34,5.12,4.12-.29,6.45-3.46,10-9.1,10.3-6.68.31-10.19-2.64-10.8-9.5-.31-3.46-.06-7-.06-10.46Z" transform="translate(-171 -22)" style="fill:#1baa55"/><path d="M496.28,541c3.44-.77,4.53.72,5.06,4.1,1.61,10.17,3.75,20.26,5.5,30.41.24,1.37,2,3.8-1.2,4.29-2.6.4-4.91.29-5.23-3.42-.15-1.74.68-4.47-1.9-5.15-3.11-.82-5.93-.67-6.19,3.81-.12,2,.45,4.94-3.38,4.87-2.73-.06-3.84-.43-3.19-3.68,2.1-10.42,3.87-20.91,5.64-31.39C491.89,541.86,493,540.16,496.28,541Zm.46,10.41-.51-.1c-.61,3.38-1.24,6.77-1.82,10.16-.19,1.1-.73,2.47.5,3.13a3.82,3.82,0,0,0,2.88.06c1.48-.59.69-1.91.52-3Q497.52,556.51,496.74,551.37Z" transform="translate(-171 -22)" style="fill:#4ca8ae"/><path d="M760.34,275.24q-38.6,21.87-77.19,43.75c-3.4,1.93-6.95,1.41-10.49,1.38-.18-.46-.36-.93-.55-1.39l82.73-44.51C756.53,275.76,758.53,274.82,760.34,275.24Z" transform="translate(-171 -22)" style="fill:#56adb4"/><path d="M349,559.93c0-5.16.14-10.32-.05-15.46-.1-2.89,1-3.79,3.76-3.65,3.81.18,7.64.1,11.47,0,2-.05,3,.64,3,2.84s-.72,3.46-3.15,3.23c-.82-.08-1.66,0-2.49,0-5.43,0-7.14,2.42-5.62,7.6.8,2.71,2.93,1.63,4.53,1.7,2.33.11,4.26,0,4.22,3.33s-1.91,3.57-4.25,3.22c-3.87-.57-5,1.12-4.61,4.74.27,2.8-.07,5.66.09,8.48s-.65,3.84-3.6,3.9c-3.23.07-3.42-1.56-3.37-4C349.12,570.57,349,565.25,349,559.93Z" transform="translate(-171 -22)" style="fill:#4ca8ae"/><path d="M760.34,275.24c-1.81-.42-3.81.52-5.5-.77l97.32-52.53,2,.33c-11.09,7.37-23.05,13.27-34.57,19.91-18.45,10.64-37.09,21-55.66,31.4C762.81,274.23,761.55,274.69,760.34,275.24Z" transform="translate(-171 -22)" style="fill:#afd452"/><path d="M520.4,563.23c0-3.49,0-7,0-10.48.05-3.21.56-6.46-4.54-6-2.15.2-1.63-2-1.7-3.44-.07-1.65.76-2.43,2.41-2.42h15c2.11,0,2.34,1.36,2.35,3s-.22,3.24-2.31,3c-4.81-.64-4.44,2.49-4.42,5.61.06,7.65,0,15.3,0,23,0,2.45.23,4.54-3.44,4.46s-3.37-2.32-3.37-4.68Z" transform="translate(-171 -22)" style="fill:#4aa6ae"/><path d="M845.1,563.15c0-3.32,0-6.65,0-10,0-3.15,1.08-7-4.55-6.39-1.91.21-1.54-1.76-1.58-3s-.08-2.85,1.86-2.86c5.16,0,10.31,0,15.47,0,1.91,0,1.8,1.58,1.83,2.91,0,1.59-.06,3.28-2.22,3-4.14-.51-4,2-3.95,4.9.09,8.15,0,16.3.07,24.45,0,2.38-.41,3.66-3.24,3.65s-3.86-.88-3.74-3.74C845.24,571.81,845.1,567.48,845.1,563.15Z" transform="translate(-171 -22)" style="fill:#a6ce43"/><path d="M1058.1,563.44c0-4.32-.09-8.65,0-13,.06-2.34-.29-4-3.18-3.55-2.43.36-3.06-.8-3.11-3.12,0-2.6,1.13-3,3.32-3q6.48.17,13,0c2.08-.05,3,.55,3,2.8s-.33,3.68-2.95,3.27c-3.36-.52-3.26,1.6-3.24,3.94.07,8.32,0,16.64.07,25,0,2.49-.18,4-3.39,4-3,0-3.67-1.14-3.55-3.85C1058.23,571.77,1058.1,567.6,1058.1,563.44Z" transform="translate(-171 -22)" style="fill:#1baa55"/><path d="M843.15,275.3c-11.38,14.27-22.79,28.51-34.08,42.85-2.14,2.72-4.76,1.45-7.72,2,1-3.56,3.51-5.27,5.31-7.41,10.24-12.2,20.6-24.3,30.93-36.41a11.72,11.72,0,0,1,1.53-1.27Z" transform="translate(-171 -22)" style="fill:#4ca8ae"/><path d="M546,560c0-5.33.07-10.65,0-16-.05-2.31.68-3.33,3.12-3.25,2.2.08,3.87.14,3.84,3.11q-.15,16.47,0,32.94c0,3.09-1.9,2.85-4,3-2.57.16-3-1.15-3-3.34C546.07,571,546,565.53,546,560Z" transform="translate(-171 -22)" style="fill:#4ca8ae"/><path d="M894.42,560.46c0-5.47.13-10.94-.06-16.41-.09-2.82,1.2-3.23,3.59-3.24s3.21.63,3.19,3.07q-.15,16.41,0,32.81c0,2.52-1.07,3-3.28,3-2.53.06-3.57-.67-3.49-3.35C894.53,571.07,894.42,565.76,894.42,560.46Z" transform="translate(-171 -22)" style="fill:#1baa55"/><path d="M758.85,560.65c0,5.15-.12,10.31,0,15.46.1,2.83-.9,3.75-3.72,3.75s-3.27-1.24-3.25-3.63c.08-10.64.1-21.29,0-31.93,0-2.54.72-3.56,3.38-3.5,2.47,0,3.66.69,3.59,3.39C758.76,549.67,758.85,555.16,758.85,560.65Z" transform="translate(-171 -22)" style="fill:#a6ce43"/><path d="M664.84,560.23c0-5.32.11-10.64,0-16-.08-2.63.91-3.43,3.47-3.46,2.71,0,3.39,1.08,3.36,3.56q-.12,16,0,31.94c0,2.56-.94,3.47-3.52,3.52-2.79,0-3.34-1.21-3.29-3.63C664.92,570.88,664.84,565.56,664.84,560.23Z" transform="translate(-171 -22)" style="fill:#a3cc3e"/><path d="M965.82,275.14,994.1,319.4c-3.27.89-5.5,1.18-7.13-1.65q-12.35-21.36-24.82-42.65Z" transform="translate(-171 -22)" style="fill:#4ca8ae"/><path d="M293.91,559.94c0-5.31.08-10.62,0-15.93-.05-2.38.89-3.17,3.23-3.18s3.16.94,3.15,3.25q-.11,16.18,0,32.36c0,2.14-.38,3.38-3,3.42s-3.47-.94-3.41-3.49C294,570.9,293.91,565.42,293.91,559.94Z" transform="translate(-171 -22)" style="fill:#48a5ac"/><path d="M843.15,275.3l-4-.21C853.74,257,869,239.4,884.36,221.94l1.67.26C872,240.12,857.85,257.93,843.15,275.3Z" transform="translate(-171 -22)" style="fill:#afd452"/><path d="M965.82,275.14l-3.67,0c-8.78-14.1-17.27-28.38-25.28-42.93l1-1.11C947.64,245.49,956.78,260.28,965.82,275.14Z" transform="translate(-171 -22)" style="fill:#a6ce43"/><path d="M776.92,222h-12c.06-.45.13-.91.2-1.37l2.89-.48a40.9,40.9,0,0,0,17-3.79l2-.21c6.41,0,12.51-1.84,18.62-3.33,3.83-.94,8.15-.35,11.47-3.18l2.91-.49c5.49.7,10.45-2.53,15.9-2.17l.15.21-1,1-2.16.63c-4.9.19-9.48,1.69-14,3.32l-2.27.59a1.19,1.19,0,0,0-1.64.37l-2.38.63c-1-.65-1.73,0-2.49.45l-2.15.74c-.75-.85-1.27-.08-1.86.26l-2.14.74c-.75-.85-1.27-.08-1.85.26l-2.17.64c-.79-.8-1.26,0-1.83.36l-2.17.64a22.87,22.87,0,0,0-10,2.27l-1.53.29a2,2,0,0,0-2.47.71l-2.35.62C778.66,221.17,777.8,221.73,776.92,222Z" transform="translate(-171 -22)" style="fill:#1baa55"/><path d="M647.87,553.19c2.26,1.72,4.93,3.52,6.5,6.22,1.3,2.24-1.15,3.09-2.52,4.12-2.46,1.84-5.21,7.71-7.1-.66-.42-1.87-3.59-.6-5.47-.93-1.47-.26-3.76.69-3.73-2s2.3-1.64,3.75-1.9c2.51-.43,6.47,1.76,6.26-3.59C645.54,553.77,646.58,553.25,647.87,553.19Z" transform="translate(-171 -22)" style="fill:#a6a7aa"/><path d="M886,559.87c-.13,2.13-5.27,7-7,7-1,0-1.9-.63-1.79-1.36.8-4.93-2.76-3.36-5.13-3.55-.82-.06-1.66,0-2.49,0-1.26,0-2.34-.32-2.41-1.88s1-1.95,2.25-2c1.5,0,3-.07,4.49,0,1.66.06,2.43,0,2.52-2.33.12-3.23,1.92-3.72,4.47-1.31C882.8,556.22,885.4,557.29,886,559.87Z" transform="translate(-171 -22)" style="fill:#a6a7aa"/><path d="M878.66,198.41q-15.9,3.65-31.8,7.29a28.21,28.21,0,0,1-2.89.38c-1.32-1.91-3.28-.61-4.9-1,11.75-3.52,23.87-5.41,35.83-8,5.32-1.15,10.53-3,16.08-3-1.55,2.07-4.24,1.38-6.15,2.57l-1.86.54-2.48.58-1.73.69Z" transform="translate(-171 -22)" style="fill:#4bba78"/><path d="M816.56,222.2l-4.37-.54,48.95-15.94c.13,1.12-.87,1.54-1.41,2.24Z" transform="translate(-171 -22)" style="fill:#4bba78"/><path d="M914.83,222l-5.82,0c-.1-9.1,1.6-18.07,2.06-27.13l1.39.28Z" transform="translate(-171 -22)" style="fill:#1baa55"/><path d="M912.46,195.2l-1.39-.28c-2-3.26-4.11-1.65-6.42-.38-5.19,2.86-10,6.47-15.69,8.35a7.22,7.22,0,0,1,0-.93l9-5.91c.69-.36,2.43-.19,1-1.67-.86-.9-2.51-.86-3-2.32a85.56,85.56,0,0,0,9.07-1.8c5.21-1.58,9.53-.84,12.82,3.77l-.9.82c-.87.36-1.54,2.5-2.72.3C913.64,194.08,913,194.54,912.46,195.2Z" transform="translate(-171 -22)" style="fill:#a6a7aa"/><path d="M951.79,222l-6,.25-14.94-14.1-.19-.14a.8.8,0,0,1-.62-.59.47.47,0,0,0-.4-.41.52.52,0,0,1-.48-.44c0-1.27.83-1.46,1.81-1.49C938.11,210.43,945.21,215.87,951.79,222Z" transform="translate(-171 -22)" style="fill:#1baa55"/><path d="M797,512q35.3,0,70.59,0c1.76,0,3.67-.6,5.25.78l-73.81.21C798.23,513,797.4,512.91,797,512Z" transform="translate(-171 -22)" style="fill:#a6a7aa"/><path d="M859.73,208c.54-.7,1.54-1.12,1.41-2.24,5.66-1.71,11.33-3.38,17-5.15,1-.33.61-1.37.56-2.16l.09,0c.69.66,1.48,1.74,2.42,1.06s-.12-1.28-.69-1.75l2.48-.58a1.69,1.69,0,0,0,1.94,1.83l.1.11c-1.83,2.84-5.14,2.82-7.84,3.66C871.39,204.56,865.88,207.38,859.73,208Z" transform="translate(-171 -22)" style="fill:#fcfcfc"/><path d="M854.19,222.27l-2-.33A222.63,222.63,0,0,1,872.08,211l.91.87A163.9,163.9,0,0,1,854.19,222.27Z" transform="translate(-171 -22)" style="fill:#4bba78"/><path d="M293.24,512c14.19,0,28.38,0,42.57,0,1.75,0,3.66-.63,5.2.84q-22.63.07-45.27.14C294.81,513,293.7,513.22,293.24,512Z" transform="translate(-171 -22)" style="fill:#a6a7aa"/><path d="M895.94,192.06c.48,1.46,2.13,1.42,3,2.32,1.41,1.48-.33,1.31-1,1.67l-12.9,3-.1-.1c0-.8,0-1.59-.08-2.38,1.91-1.19,4.6-.5,6.15-2.57C893.16,194.69,894.05,192.14,895.94,192.06Z" transform="translate(-171 -22)" style="fill:#fcfcfc"/><path d="M931,205c-1,0-1.84.22-1.81,1.49l-12.23-11.67.9-.82C922.28,197.61,927,200.87,931,205Z" transform="translate(-171 -22)" style="fill:#4bba78"/><path d="M576.07,512c12.89,0,25.79,0,38.68,0,1.75,0,3.67-.63,5.21.84q-20.67.07-41.35.14C577.66,513,576.57,513.16,576.07,512Z" transform="translate(-171 -22)" style="fill:#a6a7aa"/><path d="M886,222.2l-1.67-.26A152.4,152.4,0,0,1,898.9,205a5.81,5.81,0,0,1,.38.46C895.43,211.48,890.61,216.75,886,222.2Z" transform="translate(-171 -22)" style="fill:#4bba78"/><path d="M817.08,209.6c-3.32,2.83-7.64,2.24-11.47,3.18-6.11,1.49-12.21,3.36-18.62,3.33A253.51,253.51,0,0,1,817.08,209.6Z" transform="translate(-171 -22)" style="fill:#4bba78"/><path d="M873,211.86l-.91-.87a125.21,125.21,0,0,1,16.86-9,7.22,7.22,0,0,0,0,.93A97.79,97.79,0,0,1,873,211.86Z" transform="translate(-171 -22)" style="fill:#56adb4"/><path d="M930.87,222.18a68.63,68.63,0,0,1-7-12c.24-.19.48-.38.71-.58a82.94,82.94,0,0,1,7.67,12.33Z" transform="translate(-171 -22)" style="fill:#4bba78"/><path d="M518.2,512c7.37,0,14.74,0,22.11,0,1.58,0,3.31-.52,4.66.85q-12.13.07-24.28.14C519.76,513,518.66,513.22,518.2,512Z" transform="translate(-171 -22)" style="fill:#a6a7aa"/><path d="M930.87,222.18l1.35-.29a45,45,0,0,1,5.69,9.17l-1,1.11A49.6,49.6,0,0,1,930.87,222.18Z" transform="translate(-171 -22)" style="fill:#afd452"/><path d="M785,216.32a40.9,40.9,0,0,1-17,3.79C773.5,218.08,779.27,217.3,785,216.32Z" transform="translate(-171 -22)" style="fill:#4bba78"/><path d="M835.89,206.94c-5.45-.36-10.41,2.87-15.9,2.17,5.5-2,11.28-2.81,17-3.84Z" transform="translate(-171 -22)" style="fill:#4bba78"/><path d="M818.88,212.12c4.56-1.63,9.14-3.13,14-3.32A59.33,59.33,0,0,1,818.88,212.12Z" transform="translate(-171 -22)" style="fill:#4bba78"/><path d="M786,220.07a22.87,22.87,0,0,1,10-2.27C792.7,218.94,789.47,220.09,786,220.07Z" transform="translate(-171 -22)" style="fill:#4bba78"/><path d="M835.89,206.94l1.1-1.67,2.08-.18c1.62.38,3.58-.92,4.9,1l-2.39.63c-1-.65-1.72,0-2.49.46l-2.14.73-.91-.75Z" transform="translate(-171 -22)" style="fill:#1baa55"/><path d="M765.11,220.59c-.07.46-.14.92-.2,1.37L759,222C760.86,220.61,763.06,220.93,765.11,220.59Z" transform="translate(-171 -22)" style="fill:#4bba78"/><path d="M898.9,205c.11-1.18,1.08-1.42,2-1.89-.33,1-.6,1.92-1.6,2.34C899.16,205.29,899,205.13,898.9,205Z" transform="translate(-171 -22)" style="fill:#4bba78"/><path d="M923.84,210.14c-1.08-.52-1.38-2.14-.92-2.32,1.1-.43,1.14,1.05,1.63,1.74C924.32,209.76,924.08,210,923.84,210.14Z" transform="translate(-171 -22)" style="fill:#4bba78"/><path d="M782,221.07a2,2,0,0,1,2.47-.71A1.84,1.84,0,0,1,782,221.07Z" transform="translate(-171 -22)" style="fill:#4bba78"/><path d="M836,207.15l.91.75-1.87.27Z" transform="translate(-171 -22)" style="fill:#4bba78"/><path d="M776.92,222c.88-.22,1.74-.78,2.7-.26a3.05,3.05,0,0,1-2.7.57Z" transform="translate(-171 -22)" style="fill:#4bba78"/><path d="M798.1,217.16c.57-.31,1-1.16,1.83-.36A1.48,1.48,0,0,1,798.1,217.16Z" transform="translate(-171 -22)" style="fill:#4bba78"/><path d="M802.1,216.16c.58-.34,1.1-1.11,1.85-.26Z" transform="translate(-171 -22)" style="fill:#4bba78"/><path d="M810.1,214.16c.76-.48,1.51-1.1,2.49-.45A2.4,2.4,0,0,1,810.1,214.16Z" transform="translate(-171 -22)" style="fill:#4bba78"/><path d="M806.09,215.16c.59-.34,1.11-1.11,1.86-.26Z" transform="translate(-171 -22)" style="fill:#4bba78"/><path d="M839.09,207.17c.77-.49,1.51-1.11,2.49-.46A2.38,2.38,0,0,1,839.09,207.17Z" transform="translate(-171 -22)" style="fill:#4bba78"/><path d="M815,213.08a1.19,1.19,0,0,1,1.64-.37A1.23,1.23,0,0,1,815,213.08Z" transform="translate(-171 -22)" style="fill:#4bba78"/><path d="M929.64,207a.47.47,0,0,1,.4.41l-.37,0Z" transform="translate(-171 -22)" style="fill:#4bba78"/><polygon points="759.66 185.96 759.86 186.1 759.65 186.24 759.66 185.96" style="fill:#4bba78"/><path d="M321,464.51c0-6.83.12-13.67-.06-20.49-.08-3.1,1.07-4.29,4.07-4,4.6.5,9.35.4,13.79,1.54,9.07,2.33,12.17,9.62,13,18a44.34,44.34,0,0,1-1.1,16.84c-2.75,9.55-8.45,13.54-18.41,12.65-3.59-.33-8.35,1.64-10.5-1-2.38-2.88-.63-7.68-.77-11.64S321,468.51,321,464.51Z" transform="translate(-171 -22)" style="fill:#fdfdfd"/><path d="M321,395.33c0-5.82.1-11.65-.05-17.47-.07-2.76.82-3.94,3.7-3.85,5.6.19,11.23-.32,16.39,2.81a10.84,10.84,0,0,1,3.59,3.23c7,10.13,5.7,25.6-2.82,33.34-3.22,2.93-15.93,5.07-19.47,3.34-1.82-.89-1.31-2.52-1.32-3.92C320.93,407,321,401.16,321,395.33Z" transform="translate(-171 -22)" style="fill:#fcfcfc"/><path d="M431.13,398.45c0-6.82.13-13.64-.05-20.46-.09-3.08,1-4,4-4a74.85,74.85,0,0,1,14.35,1.14c6.3,1.17,10.17,6.05,11.24,15.23a65.75,65.75,0,0,1-.36,18.36c-2,12.39-7.67,13.46-17,14.86-12.11,1.82-12.21,1.18-12.21-11.15Z" transform="translate(-171 -22)" style="fill:#fcfcfc"/><path d="M603.11,431.56c0-17.3.19-34.6-.12-51.9-.09-4.81,1.52-6.16,5.92-5.64,3.77.45,7.63.33,11.37.94,7.22,1.2,11.59,6.85,11.66,15.64.2,23.29.14,46.59.16,69.88,0,4.32.09,8.66-.19,13-.7,10.85-7.66,16.67-18.58,15.66-3.25-.31-7.46,1.54-9.51-.95s-.66-6.72-.68-10.18C603.06,462.51,603.11,447,603.11,431.56Z" transform="translate(-171 -22)" style="fill:#fdfdfd"/><path d="M420.69,552.32c1.2-1.76-1.75-5.46,2.84-5.47,3.64,0,4.21,2.54,4.16,5.41s-.44,5.49-4.08,5.55C419.07,557.88,421.78,554.2,420.69,552.32Z" transform="translate(-171 -22)" style="fill:#fcfcfc"/><path d="M574.06,559.82c0-3.15,0-6.3,0-9.45,0-2.35,1-3.67,3.61-3.6s3.13,1.55,3.14,3.55c0,6.46.07,12.93,0,19.39,0,2.15-.84,4-3.39,4.08s-3.29-1.9-3.34-4C574,566.45,574.06,563.13,574.06,559.82Z" transform="translate(-171 -22)" style="fill:#fcfcfc"/><path d="M387,560.21c0-3.32,0-6.63,0-9.94,0-1.71.21-3.36,2.56-3.48,2.1-.11,3.84.49,4,2.74a145.87,145.87,0,0,1-.12,21.32,3,3,0,0,1-3.32,3c-2.42-.1-3.05-1.67-3.08-3.67C386.92,566.84,387,563.52,387,560.21Z" transform="translate(-171 -22)" style="fill:#fcfcfc"/><path d="M998.52,551.41c.5,3.49,1,6.88,1.48,10.26.26,1.7.7,3.28-2,3.24-2.49,0-2.2-1.73-1.82-3C997.14,558.46,996.35,554.63,998.52,551.41Z" transform="translate(-171 -22)" style="fill:#fcfcfc"/><path d="M961.85,552.24c1.27-1.75-2-5.69,3.19-5.53,4.05.12,5.07,2.41,5,5.81,0,3.24-1.15,5.3-4.92,5.41C960.12,558.06,962.91,554.27,961.85,552.24Z" transform="translate(-171 -22)" style="fill:#fcfcfc"/><path d="M496.74,551.37q.78,5.13,1.57,10.25c.17,1.09,1,2.41-.52,3a3.82,3.82,0,0,1-2.88-.06c-1.23-.66-.69-2-.5-3.13.58-3.39,1.21-6.78,1.82-10.16Z" transform="translate(-171 -22)" style="fill:#fcfcfc"/><path d="M880.49,197.74c.57.47,1.75,1,.69,1.75s-1.73-.4-2.42-1.06Z" transform="translate(-171 -22)" style="fill:#fefefe"/><path d="M884.83,196.62c0,.79.06,1.58.08,2.38a1.7,1.7,0,0,1-1.94-1.84Z" transform="translate(-171 -22)" style="fill:#fefefe"/></svg>