<?xml version="1.0" encoding="utf-8"?>
<!-- Generator: Adobe Illustrator 19.0.0, SVG Export Plug-In . SVG Version: 6.00 Build 0)  -->
<svg version="1.1" id="layer" xmlns="http://www.w3.org/2000/svg" xmlns:xlink="http://www.w3.org/1999/xlink" x="0px" y="0px"
	 viewBox="-153 -46 652 652" style="enable-background:new -153 -46 652 652;" xml:space="preserve">
<style type="text/css">
	.st0{fill:#6B4592;}
	.st1{fill:#C5D52D;}
	.st2{fill:#271D1A;}
</style>
<path class="st0" d="M98.7,178.4C-61.7,192.3-129.5,238-131,264.4c-2.8,50.8,127.9,96.4,317.7,91.6l-1.1-17.9
	c-149.1-1.6-255.7-25.2-283.8-69.7c-1.3-3.2-1.7-6.5-1.6-9.8c0.9-28.1,37.9-44.6,92.3-61.7c-52.2,17.1-91.1,47-60.3,73.9
	c49.6,39.5,152.1,52.1,247.8,51.8l-1.8-17.6c-106.1,6-221.1-21-231.4-58.1C-59.7,223.5-21.9,197.6,98.7,178.4"/>
<path class="st1" d="M319.8,204.8h-36.6c-39.8-24.3-111.3-35.5-210-36.3l-2.7-16.2C135.8,154,261,157.6,319.8,204.8 M382.2,204.3
	c-19.8-81.7-259.6-84.8-318.3-85.2l2.3,17.6c143.2,2,254.4,24.3,282.4,67.4c0,0.1-2.5,0.2-2.5,0.2H382.2z M135.8,297.3
	c61.3-3.7,117.6-10.9,163.9-28.6H285c-4.8,1.8-32.7,11.2-39.5,11.4c4.4-1.3,29.5-8.6,32.3-11.2h-12.6
	C233.5,283,187.8,292,135.8,297.3"/>
<rect x="1.8" y="211.2" class="st2" width="14.1" height="51.9"/>
<polyline class="st2" points="49.3,223.1 49.3,262.7 34.6,262.7 34.6,223.1 23.3,223.1 23.3,211.2 61.1,211.2 61.1,223.1 "/>
<path class="st2" d="M93.4,209.3c4,0.3,7.6,1.3,10.9,3v16.3c-4.9-8.2-22.8-12-25.5,7.6c1.5,20.4,19.5,16.8,25.5,9v15.9
	c-3.3,1.4-6.9,2.6-10.9,3.3c-19.5-0.2-29.1-12.8-29.1-28.7C64.3,219.9,77.5,208.4,93.4,209.3"/>
<rect x="135.8" y="210.8" class="st2" width="5.7" height="52.3"/>
<polyline class="st2" points="319.2,214.9 319.2,263.1 313.5,263.1 313.5,214.9 299.7,214.9 299.7,210.3 333,210.3 333,214.9 "/>
<polyline class="st2" points="346,214.9 346,231.2 367,231.2 367,235.6 346,235.6 346,258.7 367,258.7 367,263.1 340.5,263.1 
	340.5,258.7 340.8,258.7 340.8,235.6 340.5,235.6 340.5,231.2 340.8,231.2 340.8,214.9 340.5,214.9 340.5,210.5 367,210.5 
	367,214.9 "/>
<polyline class="st2" points="430.1,210.8 435.8,210.8 435.8,231.2 463.2,231.2 463.2,210.8 469,210.8 469,263.1 463.2,263.1 
	463.2,235.6 435.8,235.6 435.8,263.1 430.1,263.1 "/>
<polyline class="st2" points="213.7,214.9 213.7,231.3 233.2,231.3 233.2,235.5 213.7,235.5 213.7,263.1 207.9,263.1 207.9,210.3 
	234.5,210.3 234.5,214.9 "/>
<polyline class="st2" points="190.9,210.9 195.2,210.9 195.2,264.9 159,221.3 158.9,263.1 154,262.9 154,208.8 154.3,209 
	190.9,251.8 "/>
<path class="st2" d="M270.1,213.8c-12.4,0-22.5,10-22.5,22.3c0,12.3,10.1,22.3,22.5,22.3c12.4,0,22.5-10,22.5-22.3
	C292.5,223.8,282.5,213.8,270.1,213.8 M270.1,209c15.1,0,27.3,12.1,27.3,27c0,14.9-12.2,27-27.3,27c-15.1,0-27.3-12.1-27.3-27
	C242.7,221.1,255,209,270.1,209"/>
<path class="st2" d="M403.5,209c6,0,11.5,1.9,16,5.1v6.3c-4.1-4.1-9.7-6.6-16-6.6c-12.4,0-22.5,10-22.5,22.3
	c0,12.3,10.1,22.3,22.5,22.3c6.3,0,11.9-2.5,16-6.6v6.3c-4.5,3.2-10,5.1-16,5.1c-15.1,0-27.3-12.1-27.3-27
	C376.2,221.1,388.4,209,403.5,209"/>
<path class="st2" d="M-74.1,419c1.7,0.4,3.5,0.6,5.2,0.6c2.7,0,4.8-0.6,6.2-1.8c1.4-1.2,2.1-2.7,2.1-4.5c0-1.2-0.3-2.3-1-3.4
	c-0.6-1.1-1.7-1.9-3.2-2.6c-1.5-0.6-3.3-0.9-5.4-0.9c-0.9,0-1.7,0-2.4,0c-0.7,0-1.2,0.1-1.6,0.2 M-74.1,404.5
	c0.6,0.1,1.2,0.2,1.9,0.2c0.7,0.1,1.5,0.1,2.4,0.1c2.2,0,3.8-0.2,4.9-0.7c1.1-0.5,2-1.2,2.5-2.2c0.6-1,0.9-2,0.9-3.2
	c0-1.8-0.7-3.3-2.2-4.5c-1.5-1.2-3.6-1.9-6.4-1.9c-1.5,0-2.9,0.2-4.1,0.5V404.5z M-62.3,405.7c2.1,0.4,3.7,1.2,4.8,2.1
	c1.5,1.4,2.2,3,2.2,5c0,1.5-0.5,2.9-1.4,4.3c-1,1.4-2.3,2.4-4,3c-1.7,0.6-4.2,1-7.7,1h-14.4v-0.8h1.1c1.3,0,2.2-0.4,2.8-1.2
	c0.3-0.5,0.5-1.6,0.5-3.3v-19.6c0-1.9-0.2-3.1-0.7-3.5c-0.6-0.7-1.5-1-2.6-1h-1.1v-0.8h13.2c2.5,0,4.4,0.2,5.9,0.6
	c2.3,0.5,4,1.5,5.2,2.8c1.2,1.4,1.8,2.9,1.8,4.7c0,1.5-0.5,2.9-1.4,4.1C-59.1,404.3-60.4,405.2-62.3,405.7"/>
<path class="st2" d="M-33.2,400.7v12.4c0,2.4,0,3.8,0.2,4.3c0.1,0.5,0.3,0.9,0.5,1.1c0.3,0.2,0.5,0.3,0.9,0.3c0.5,0,1-0.1,1.6-0.4
	l0.3,0.8l-6.2,2.5h-1v-4.3c-1.8,1.9-3.1,3.1-4.1,3.6c-0.9,0.5-1.9,0.7-3,0.7c-1.2,0-2.2-0.3-3-1c-0.8-0.7-1.4-1.5-1.8-2.6
	c-0.3-1-0.5-2.5-0.5-4.4v-9.1c0-1-0.1-1.6-0.3-2c-0.2-0.4-0.5-0.7-0.9-0.9c-0.4-0.2-1.2-0.3-2.2-0.3v-0.8h7.2v13.7
	c0,1.9,0.3,3.2,1,3.8c0.7,0.6,1.5,0.9,2.4,0.9c0.7,0,1.4-0.2,2.2-0.6c0.8-0.4,1.8-1.2,2.9-2.3v-11.6c0-1.2-0.2-1.9-0.7-2.4
	c-0.4-0.4-1.3-0.6-2.7-0.7v-0.8"/>
<path class="st2" d="M-14.9,400.1v7h-0.8c-0.6-2.2-1.3-3.7-2.2-4.5c-0.9-0.8-2-1.2-3.4-1.2c-1,0-1.9,0.3-2.5,0.8
	c-0.6,0.5-1,1.2-1,1.8c0,0.8,0.2,1.6,0.7,2.1c0.5,0.6,1.4,1.3,2.9,1.9l3.3,1.6c3.1,1.5,4.6,3.4,4.6,5.8c0,1.9-0.7,3.4-2.1,4.5
	c-1.4,1.1-3,1.7-4.8,1.7c-1.3,0-2.7-0.2-4.3-0.7c-0.5-0.1-0.9-0.2-1.2-0.2c-0.3,0-0.6,0.2-0.8,0.6h-0.7v-7.3h0.7
	c0.4,2.1,1.2,3.7,2.4,4.7c1.2,1.1,2.5,1.6,4,1.6c1,0,1.9-0.3,2.5-0.9c0.7-0.6,1-1.3,1-2.2c0-1-0.4-1.9-1.1-2.6
	c-0.7-0.7-2.2-1.6-4.4-2.7c-2.2-1.1-3.6-2-4.3-2.9c-0.7-0.9-1-1.9-1-3.2c0-1.7,0.6-3.1,1.8-4.2c1.2-1.1,2.7-1.7,4.5-1.7
	c0.8,0,1.8,0.2,3,0.5c0.8,0.2,1.3,0.3,1.5,0.3c0.2,0,0.4,0,0.6-0.2c0.1-0.1,0.3-0.3,0.5-0.7"/>
<path class="st2" d="M-3.1,400.1v16.4c0,1.3,0.1,2.1,0.3,2.6c0.2,0.4,0.5,0.7,0.8,0.9c0.4,0.2,1,0.3,2,0.3v0.8h-10v-0.8
	c1,0,1.7-0.1,2-0.3c0.3-0.2,0.6-0.5,0.8-1c0.2-0.4,0.3-1.3,0.3-2.6v-7.9c0-2.2-0.1-3.7-0.2-4.3c-0.1-0.5-0.3-0.8-0.5-1
	c-0.2-0.2-0.5-0.3-0.9-0.3c-0.4,0-0.9,0.1-1.5,0.3l-0.3-0.8l6.2-2.5 M-5,389.4c0.6,0,1.2,0.2,1.6,0.7c0.4,0.4,0.7,1,0.7,1.6
	c0,0.6-0.2,1.2-0.7,1.6c-0.4,0.5-1,0.7-1.6,0.7c-0.6,0-1.2-0.2-1.6-0.7c-0.4-0.4-0.7-1-0.7-1.6c0-0.6,0.2-1.2,0.7-1.6
	C-6.2,389.7-5.6,389.4-5,389.4"/>
<path class="st2" d="M8.6,404.5c2.4-2.9,4.7-4.3,6.9-4.3c1.1,0,2.1,0.3,2.9,0.8c0.8,0.6,1.5,1.5,1.9,2.8c0.3,0.9,0.5,2.3,0.5,4.1
	v8.7c0,1.3,0.1,2.2,0.3,2.6c0.2,0.4,0.4,0.7,0.8,0.9c0.4,0.2,1,0.3,2,0.3v0.8H13.8v-0.8h0.4c1,0,1.6-0.1,2-0.4
	c0.4-0.3,0.7-0.7,0.8-1.3c0.1-0.2,0.1-0.9,0.1-2.1v-8.4c0-1.9-0.2-3.2-0.7-4c-0.5-0.8-1.3-1.3-2.5-1.3c-1.8,0-3.6,1-5.3,2.9v10.8
	c0,1.4,0.1,2.2,0.2,2.6c0.2,0.4,0.5,0.8,0.9,1c0.4,0.2,1.1,0.3,2.2,0.3v0.8H1.8v-0.8h0.5c1,0,1.8-0.3,2.1-0.8c0.4-0.5,0.5-1.5,0.5-3
	V409c0-2.5-0.1-3.9-0.2-4.5c-0.1-0.5-0.3-0.9-0.5-1.1c-0.2-0.2-0.5-0.3-0.9-0.3c-0.4,0-0.9,0.1-1.5,0.3l-0.3-0.8l6.2-2.5h1"/>
<path class="st2" d="M29.2,407.1h9.6c-0.1-1.3-0.2-2.2-0.5-2.8c-0.4-0.8-0.9-1.5-1.7-2c-0.7-0.5-1.5-0.7-2.3-0.7
	c-1.2,0-2.4,0.5-3.3,1.4C29.9,404.1,29.3,405.4,29.2,407.1 M29.2,408.4c0,3,0.7,5.4,2.2,7.2c1.5,1.7,3.3,2.6,5.3,2.6
	c1.4,0,2.5-0.4,3.5-1.1c1-0.7,1.8-2,2.5-3.8l0.7,0.4c-0.3,2-1.2,3.9-2.7,5.6c-1.5,1.7-3.4,2.5-5.7,2.5c-2.5,0-4.6-1-6.4-2.9
	c-1.8-1.9-2.6-4.5-2.6-7.7c0-3.5,0.9-6.2,2.7-8.2c1.8-2,4.1-2.9,6.8-2.9c2.3,0,4.2,0.8,5.7,2.3c1.5,1.5,2.2,3.5,2.2,6.1H29.2z"/>
<path class="st2" d="M59.6,400.1v7h-0.8c-0.6-2.2-1.3-3.7-2.2-4.5c-0.9-0.8-2-1.2-3.4-1.2c-1.1,0-1.9,0.3-2.5,0.8
	c-0.6,0.5-1,1.2-1,1.8c0,0.8,0.2,1.6,0.7,2.1c0.5,0.6,1.4,1.3,2.9,1.9l3.3,1.6c3.1,1.5,4.6,3.4,4.6,5.8c0,1.9-0.7,3.4-2.1,4.5
	c-1.4,1.1-3,1.7-4.8,1.7c-1.3,0-2.7-0.2-4.3-0.7c-0.5-0.1-0.9-0.2-1.2-0.2c-0.3,0-0.6,0.2-0.8,0.6h-0.7v-7.3h0.7
	c0.4,2.1,1.2,3.7,2.4,4.7c1.2,1.1,2.5,1.6,4,1.6c1,0,1.9-0.3,2.5-0.9c0.7-0.6,1-1.3,1-2.2c0-1-0.4-1.9-1.1-2.6
	c-0.7-0.7-2.2-1.6-4.4-2.7c-2.2-1.1-3.6-2-4.3-2.9c-0.7-0.9-1-1.9-1-3.2c0-1.7,0.6-3.1,1.8-4.2c1.2-1.1,2.7-1.7,4.5-1.7
	c0.8,0,1.8,0.2,3,0.5c0.8,0.2,1.3,0.3,1.5,0.3c0.2,0,0.4,0,0.6-0.2c0.1-0.1,0.3-0.3,0.5-0.7"/>
<path class="st2" d="M77.5,400.1v7h-0.8c-0.6-2.2-1.3-3.7-2.2-4.5c-0.9-0.8-2-1.2-3.4-1.2c-1,0-1.9,0.3-2.5,0.8
	c-0.6,0.5-1,1.2-1,1.8c0,0.8,0.2,1.6,0.7,2.1c0.5,0.6,1.4,1.3,2.9,1.9l3.3,1.6c3.1,1.5,4.6,3.4,4.6,5.8c0,1.9-0.7,3.4-2.1,4.5
	c-1.4,1.1-3,1.7-4.8,1.7c-1.3,0-2.7-0.2-4.3-0.7c-0.5-0.1-0.9-0.2-1.2-0.2c-0.3,0-0.6,0.2-0.8,0.6h-0.7v-7.3h0.7
	c0.4,2.1,1.2,3.7,2.4,4.7c1.2,1.1,2.5,1.6,4,1.6c1,0,1.9-0.3,2.5-0.9c0.7-0.6,1-1.3,1-2.2c0-1-0.4-1.9-1.1-2.6
	c-0.7-0.7-2.2-1.6-4.4-2.7c-2.2-1.1-3.6-2-4.3-2.9c-0.7-0.9-1-1.9-1-3.2c0-1.7,0.6-3.1,1.8-4.2c1.2-1.1,2.7-1.7,4.5-1.7
	c0.8,0,1.8,0.2,3,0.5c0.8,0.2,1.3,0.3,1.5,0.3c0.2,0,0.4,0,0.6-0.2c0.1-0.1,0.3-0.3,0.5-0.7"/>
<path class="st2" d="M102.8,402.3v13.4c0,1.9,0.2,3.1,0.6,3.6c0.6,0.7,1.3,1,2.2,1h1.9v0.8H95.1v-0.8h0.9c0.6,0,1.2-0.1,1.6-0.5
	c0.5-0.3,0.8-0.7,1-1.2c0.2-0.5,0.3-1.5,0.3-3v-13.4h-4v-1.6h4v-1.3c0-2,0.3-3.8,1-5.2c0.7-1.4,1.7-2.6,3-3.4
	c1.4-0.9,2.9-1.3,4.6-1.3c1.6,0,3,0.5,4.4,1.5c0.9,0.7,1.3,1.4,1.3,2.3c0,0.5-0.2,0.9-0.6,1.3c-0.4,0.4-0.8,0.6-1.3,0.6
	c-0.3,0-0.7-0.1-1.1-0.4c-0.4-0.2-0.9-0.8-1.4-1.6c-0.6-0.8-1.1-1.4-1.5-1.6c-0.5-0.3-1-0.4-1.6-0.4c-0.7,0-1.3,0.2-1.8,0.6
	c-0.5,0.4-0.8,0.9-1,1.7c-0.2,0.8-0.3,2.7-0.3,5.9v1.5h5.3v1.6"/>
<path class="st2" d="M116.1,400.1v4.6c1.7-3.1,3.5-4.6,5.3-4.6c0.8,0,1.5,0.2,2.1,0.7c0.5,0.5,0.8,1.1,0.8,1.7
	c0,0.6-0.2,1.1-0.6,1.5c-0.4,0.4-0.8,0.6-1.4,0.6c-0.5,0-1.1-0.3-1.8-0.8c-0.7-0.5-1.1-0.8-1.5-0.8c-0.3,0-0.6,0.1-0.9,0.4
	c-0.7,0.6-1.4,1.6-2.1,3v9.8c0,1.1,0.1,2,0.4,2.6c0.2,0.4,0.5,0.7,1,1c0.5,0.3,1.2,0.4,2.1,0.4v0.8h-10.6v-0.8
	c1.1,0,1.8-0.2,2.4-0.5c0.4-0.2,0.6-0.6,0.8-1.1c0.1-0.3,0.1-1,0.1-2.2v-7.9c0-2.4,0-3.8-0.1-4.3c-0.1-0.4-0.3-0.8-0.5-1
	c-0.3-0.2-0.6-0.3-1-0.3c-0.5,0-1,0.1-1.6,0.3l-0.2-0.8l6.3-2.5"/>
<path class="st2" d="M132.6,400.1v16.4c0,1.3,0.1,2.1,0.3,2.6c0.2,0.4,0.5,0.7,0.8,1c0.4,0.2,1,0.3,2,0.3v0.8h-10v-0.8
	c1,0,1.7-0.1,2-0.3c0.3-0.2,0.6-0.5,0.8-1c0.2-0.4,0.3-1.3,0.3-2.6v-7.9c0-2.2-0.1-3.7-0.2-4.3c-0.1-0.5-0.3-0.8-0.5-1
	c-0.2-0.2-0.5-0.3-0.9-0.3c-0.4,0-0.9,0.1-1.5,0.3l-0.3-0.8l6.2-2.5 M130.7,389.4c0.6,0,1.2,0.2,1.6,0.7c0.4,0.4,0.7,1,0.7,1.6
	c0,0.6-0.2,1.2-0.7,1.6c-0.4,0.4-1,0.7-1.6,0.7c-0.6,0-1.2-0.2-1.6-0.7c-0.4-0.4-0.7-1-0.7-1.6c0-0.6,0.2-1.2,0.7-1.6
	C129.5,389.6,130.1,389.4,130.7,389.4"/>
<path class="st2" d="M141.8,407.1h9.6c-0.1-1.3-0.2-2.2-0.5-2.8c-0.4-0.8-0.9-1.5-1.7-2c-0.7-0.5-1.5-0.7-2.3-0.7
	c-1.3,0-2.4,0.5-3.4,1.4C142.5,404.1,142,405.4,141.8,407.1 M141.8,408.4c0,3,0.7,5.4,2.2,7.2c1.5,1.7,3.3,2.6,5.3,2.6
	c1.4,0,2.5-0.4,3.5-1.1c1-0.7,1.8-2,2.5-3.8l0.7,0.4c-0.3,2-1.2,3.9-2.8,5.6c-1.5,1.7-3.4,2.5-5.7,2.5c-2.5,0-4.6-0.9-6.4-2.9
	c-1.8-1.9-2.7-4.5-2.7-7.7c0-3.5,0.9-6.2,2.7-8.2c1.8-2,4.1-2.9,6.8-2.9c2.3,0,4.2,0.8,5.7,2.3c1.5,1.5,2.2,3.5,2.2,6.1H141.8z"/>
<path class="st2" d="M164.9,404.4c2.4-2.9,4.7-4.3,6.9-4.3c1.1,0,2.1,0.3,2.9,0.8c0.8,0.6,1.5,1.5,1.9,2.8c0.3,0.9,0.5,2.3,0.5,4.1
	v8.7c0,1.3,0.1,2.2,0.3,2.6c0.2,0.4,0.4,0.7,0.8,0.9c0.4,0.2,1.1,0.3,2,0.3v0.8h-10.2v-0.8h0.4c1,0,1.6-0.1,2-0.4
	c0.4-0.3,0.7-0.7,0.8-1.3c0.1-0.2,0.1-0.9,0.1-2.1v-8.4c0-1.9-0.3-3.2-0.7-4.1c-0.5-0.8-1.3-1.3-2.5-1.3c-1.8,0-3.6,1-5.4,2.9v10.8
	c0,1.4,0.1,2.2,0.2,2.6c0.2,0.4,0.5,0.8,0.9,0.9c0.4,0.2,1.1,0.3,2.2,0.3v0.8H158v-0.8h0.5c1.1,0,1.8-0.3,2.1-0.8
	c0.4-0.5,0.6-1.5,0.6-3v-7.6c0-2.5-0.1-4-0.2-4.5c-0.1-0.5-0.3-0.9-0.5-1.1c-0.2-0.2-0.5-0.3-0.9-0.3c-0.4,0-0.9,0.1-1.5,0.3
	l-0.3-0.8l6.2-2.5h1"/>
<path class="st2" d="M196.6,417.3v-10.5c-0.1-1-0.4-1.9-0.8-2.8c-0.5-0.8-1.1-1.5-1.8-1.9c-0.7-0.4-1.5-0.6-2.2-0.6
	c-1.3,0-2.5,0.6-3.5,1.8c-1.4,1.6-2.1,3.8-2.1,6.8c0,3,0.7,5.3,2,6.9c1.3,1.6,2.8,2.4,4.4,2.4C194,419.3,195.3,418.7,196.6,417.3
	 M196.6,418.9c-1,1-2,1.8-3,2.3c-1,0.4-2,0.7-3.1,0.7c-2.3,0-4.2-0.9-5.9-2.8c-1.7-1.9-2.5-4.3-2.5-7.2c0-2.9,0.9-5.6,2.8-8.1
	c1.9-2.4,4.3-3.7,7.2-3.7c1.8,0,3.3,0.6,4.5,1.7V398c0-2.3-0.1-3.8-0.2-4.3c-0.1-0.5-0.3-0.9-0.5-1.1c-0.2-0.2-0.5-0.3-0.9-0.3
	c-0.4,0-0.9,0.1-1.6,0.4l-0.3-0.8l6.2-2.5h1v23.7c0,2.4,0.1,3.9,0.2,4.4c0.1,0.5,0.3,0.9,0.5,1.1c0.3,0.2,0.6,0.3,0.9,0.3
	c0.4,0,1-0.1,1.6-0.4l0.3,0.8l-6.1,2.5h-1V418.9z"/>
<path class="st2" d="M212.2,389.4v27.1c0,1.3,0.1,2.1,0.3,2.5c0.2,0.4,0.5,0.7,0.9,0.9c0.4,0.2,1.1,0.3,2.2,0.3v0.8h-10.1v-0.8
	c0.9,0,1.6-0.1,1.9-0.3c0.3-0.2,0.6-0.5,0.8-1c0.2-0.4,0.3-1.3,0.3-2.6V398c0-2.3-0.1-3.7-0.2-4.3c-0.1-0.5-0.3-0.9-0.5-1.1
	c-0.2-0.2-0.5-0.3-0.9-0.3c-0.4,0-0.9,0.1-1.5,0.4l-0.4-0.8l6.2-2.5"/>
<path class="st2" d="M216.8,400.7h9.6v0.8h-0.5c-0.7,0-1.2,0.1-1.5,0.4c-0.3,0.3-0.5,0.7-0.5,1.1c0,0.6,0.2,1.4,0.8,2.4l5,10.3
	l4.6-11.3c0.3-0.6,0.4-1.2,0.4-1.8c0-0.3,0-0.5-0.1-0.6c-0.1-0.2-0.3-0.3-0.6-0.4c-0.3-0.1-0.7-0.1-1.4-0.1v-0.8h6.7v0.8
	c-0.6,0.1-1,0.2-1.3,0.4c-0.3,0.2-0.6,0.5-1,1c-0.1,0.2-0.4,0.8-0.8,1.7l-8.4,20.4c-0.8,2-1.9,3.5-3.2,4.5c-1.3,1-2.6,1.5-3.8,1.5
	c-0.9,0-1.6-0.3-2.2-0.8c-0.6-0.5-0.9-1.1-0.9-1.7c0-0.6,0.2-1.1,0.6-1.5c0.4-0.4,1-0.6,1.7-0.6c0.5,0,1.2,0.2,2,0.5
	c0.6,0.2,1,0.3,1.1,0.3c0.4,0,0.9-0.2,1.5-0.7c0.5-0.5,1.1-1.4,1.6-2.7l1.5-3.5l-7.4-15.4c-0.2-0.5-0.6-1-1.1-1.7
	c-0.4-0.5-0.7-0.9-0.9-1c-0.3-0.2-0.9-0.5-1.7-0.6"/>
<path class="st2" d="M272.5,390.2v10.5h-0.8c-0.3-2-0.8-3.6-1.5-4.8c-0.7-1.2-1.7-2.1-3-2.8c-1.3-0.7-2.6-1.1-4-1.1
	c-1.6,0-2.9,0.5-3.9,1.4c-1,0.9-1.5,2-1.5,3.2c0,0.9,0.3,1.8,1,2.5c0.9,1.1,3.2,2.6,6.7,4.5c2.8,1.5,4.8,2.7,5.8,3.5
	c1,0.8,1.9,1.8,2.4,2.9c0.6,1.1,0.8,2.3,0.8,3.5c0,2.3-0.9,4.3-2.7,5.9c-1.8,1.7-4.1,2.5-6.9,2.5c-0.9,0-1.7-0.1-2.5-0.2
	c-0.5-0.1-1.4-0.3-2.9-0.8c-1.5-0.5-2.4-0.7-2.8-0.7c-0.4,0-0.7,0.1-0.9,0.3c-0.2,0.2-0.4,0.7-0.5,1.4h-0.8v-10.4h0.8
	c0.4,2.2,0.9,3.8,1.6,4.9c0.7,1.1,1.7,2,3,2.7c1.4,0.7,2.9,1.1,4.5,1.1c1.9,0,3.4-0.5,4.5-1.5c1.1-1,1.6-2.1,1.6-3.5
	c0-0.8-0.2-1.5-0.6-2.3c-0.4-0.8-1.1-1.5-1.9-2.1c-0.6-0.5-2.2-1.4-4.8-2.9c-2.6-1.5-4.5-2.6-5.6-3.5c-1.1-0.9-1.9-1.8-2.5-2.9
	c-0.6-1-0.9-2.2-0.9-3.4c0-2.2,0.8-4,2.5-5.6c1.7-1.6,3.8-2.4,6.4-2.4c1.6,0,3.3,0.4,5.2,1.2c0.8,0.4,1.4,0.6,1.8,0.6
	c0.4,0,0.7-0.1,1-0.3c0.2-0.2,0.4-0.7,0.6-1.4"/>
<path class="st2" d="M287.8,401.6c-0.8,0-1.6,0.2-2.4,0.7c-0.8,0.5-1.5,1.3-1.9,2.5c-0.5,1.2-0.8,2.7-0.8,4.5c0,3,0.6,5.6,1.8,7.7
	c1.2,2.2,2.8,3.2,4.7,3.2c1.5,0,2.7-0.6,3.6-1.8c0.9-1.2,1.4-3.2,1.4-6.1c0-3.6-0.8-6.5-2.4-8.6
	C290.9,402.3,289.5,401.6,287.8,401.6 M288.5,400.1c3.1,0,5.6,1.2,7.5,3.5c1.6,2,2.4,4.3,2.4,6.9c0,1.8-0.4,3.7-1.3,5.6
	c-0.9,1.9-2.1,3.3-3.7,4.3c-1.6,0.9-3.3,1.4-5.2,1.4c-3.1,0-5.6-1.2-7.4-3.7c-1.6-2.1-2.3-4.4-2.3-7c0-1.9,0.5-3.8,1.4-5.6
	c0.9-1.9,2.2-3.2,3.7-4.1C285.2,400.5,286.8,400.1,288.5,400.1"/>
<path class="st2" d="M308.6,389.4v27.1c0,1.3,0.1,2.1,0.3,2.5c0.2,0.4,0.5,0.7,0.9,0.9c0.4,0.2,1.1,0.3,2.2,0.3v0.8h-10.1v-0.8
	c0.9,0,1.6-0.1,1.9-0.3c0.3-0.2,0.6-0.5,0.8-1c0.2-0.4,0.3-1.3,0.3-2.6V398c0-2.3-0.1-3.7-0.2-4.2c-0.1-0.5-0.3-0.9-0.5-1.1
	c-0.2-0.2-0.5-0.3-0.9-0.3c-0.4,0-0.9,0.1-1.5,0.4l-0.4-0.8l6.2-2.5"/>
<path class="st2" d="M332.5,400.7v12.4c0,2.4,0.1,3.8,0.2,4.3c0.1,0.5,0.3,0.9,0.5,1.1c0.3,0.2,0.5,0.3,0.9,0.3c0.5,0,1-0.1,1.6-0.4
	l0.3,0.8l-6.2,2.5h-1v-4.3c-1.8,1.9-3.1,3.1-4.1,3.6c-0.9,0.5-1.9,0.7-3,0.7c-1.2,0-2.2-0.3-3-1c-0.8-0.7-1.4-1.5-1.8-2.6
	c-0.3-1-0.5-2.5-0.5-4.4v-9.1c0-1-0.1-1.6-0.3-2c-0.2-0.4-0.5-0.7-0.9-0.9c-0.4-0.2-1.2-0.3-2.2-0.3v-0.8h7.2v13.7
	c0,1.9,0.3,3.2,1,3.8c0.7,0.6,1.5,0.9,2.4,0.9c0.6,0,1.4-0.2,2.2-0.6c0.8-0.4,1.8-1.2,2.9-2.3v-11.6c0-1.2-0.2-1.9-0.6-2.4
	c-0.4-0.4-1.3-0.6-2.7-0.7v-0.8"/>
<path class="st2" d="M343.5,394v6.7h4.8v1.6h-4.8v13.3c0,1.3,0.2,2.2,0.6,2.7c0.4,0.5,0.9,0.7,1.5,0.7c0.5,0,1-0.1,1.4-0.5
	c0.5-0.3,0.8-0.8,1.1-1.4h0.9c-0.5,1.5-1.3,2.6-2.2,3.3c-1,0.8-1.9,1.1-3,1.1c-0.7,0-1.4-0.2-2-0.6c-0.7-0.4-1.1-0.9-1.5-1.6
	c-0.3-0.7-0.5-1.8-0.5-3.3v-13.8h-3.3v-0.7c0.8-0.3,1.7-0.9,2.5-1.7c0.9-0.8,1.6-1.7,2.3-2.8c0.3-0.6,0.8-1.6,1.5-3.1"/>
<path class="st2" d="M357.4,400.1v16.4c0,1.3,0.1,2.1,0.3,2.6c0.2,0.4,0.5,0.7,0.8,0.9c0.4,0.2,1.1,0.3,2,0.3v0.8h-10v-0.8
	c1,0,1.7-0.1,2-0.3c0.3-0.2,0.6-0.5,0.8-1c0.2-0.4,0.3-1.3,0.3-2.6v-7.9c0-2.2-0.1-3.7-0.2-4.3c-0.1-0.5-0.3-0.8-0.5-1
	c-0.2-0.2-0.5-0.3-0.9-0.3c-0.4,0-0.9,0.1-1.5,0.3l-0.3-0.8l6.2-2.5 M355.6,389.4c0.6,0,1.2,0.2,1.6,0.7c0.4,0.4,0.7,1,0.7,1.6
	c0,0.6-0.2,1.2-0.7,1.6c-0.4,0.4-1,0.7-1.6,0.7c-0.6,0-1.2-0.2-1.6-0.7c-0.4-0.4-0.7-1-0.7-1.6c0-0.6,0.2-1.2,0.7-1.6
	C354.4,389.6,354.9,389.4,355.6,389.4"/>
<path class="st2" d="M372.5,401.6c-0.8,0-1.6,0.2-2.4,0.7c-0.8,0.5-1.5,1.3-1.9,2.5c-0.5,1.2-0.7,2.7-0.7,4.5c0,3,0.6,5.6,1.8,7.7
	c1.2,2.2,2.8,3.2,4.7,3.2c1.5,0,2.6-0.6,3.6-1.8c0.9-1.2,1.4-3.2,1.4-6.1c0-3.6-0.8-6.5-2.4-8.6
	C375.6,402.3,374.2,401.6,372.5,401.6 M373.2,400.1c3.1,0,5.6,1.2,7.5,3.5c1.6,2,2.4,4.3,2.4,6.9c0,1.8-0.5,3.7-1.3,5.6
	c-0.9,1.9-2.1,3.3-3.7,4.3c-1.6,0.9-3.3,1.4-5.2,1.4c-3.1,0-5.6-1.2-7.4-3.7c-1.6-2.1-2.3-4.4-2.3-7c0-1.9,0.5-3.8,1.4-5.6
	c0.9-1.9,2.2-3.2,3.7-4.1C369.9,400.5,371.5,400.1,373.2,400.1"/>
<path class="st2" d="M392.3,404.4c2.4-2.9,4.7-4.3,6.9-4.3c1.1,0,2.1,0.3,2.9,0.8c0.8,0.6,1.5,1.5,1.9,2.8c0.3,0.9,0.5,2.3,0.5,4.1
	v8.7c0,1.3,0.1,2.2,0.3,2.6c0.2,0.4,0.4,0.7,0.8,0.9c0.4,0.2,1,0.3,2,0.3v0.8h-10.2v-0.8h0.4c1,0,1.6-0.1,2-0.4
	c0.4-0.3,0.7-0.7,0.8-1.3c0.1-0.2,0.1-0.9,0.1-2.1v-8.4c0-1.9-0.2-3.2-0.7-4.1c-0.5-0.8-1.3-1.3-2.5-1.3c-1.8,0-3.6,1-5.3,2.9v10.8
	c0,1.4,0.1,2.2,0.2,2.6c0.2,0.4,0.5,0.8,0.9,1c0.4,0.2,1.1,0.3,2.2,0.3v0.8h-10.2v-0.8h0.5c1,0,1.8-0.3,2.1-0.8
	c0.4-0.5,0.5-1.5,0.5-3v-7.6c0-2.5-0.1-4-0.2-4.5c-0.1-0.5-0.3-0.9-0.5-1.1c-0.2-0.2-0.6-0.3-0.9-0.3c-0.4,0-0.9,0.1-1.5,0.3
	l-0.3-0.8l6.2-2.5h1"/>
<path class="st2" d="M422.7,400.1v7h-0.7c-0.6-2.2-1.3-3.7-2.2-4.5c-0.9-0.8-2-1.2-3.4-1.2c-1.1,0-1.9,0.3-2.5,0.8
	c-0.7,0.5-1,1.2-1,1.8c0,0.8,0.2,1.6,0.7,2.1c0.5,0.6,1.4,1.3,2.8,1.9l3.3,1.6c3.1,1.5,4.6,3.4,4.6,5.8c0,1.9-0.7,3.4-2.1,4.5
	c-1.4,1.1-3,1.7-4.8,1.7c-1.3,0-2.7-0.2-4.3-0.7c-0.5-0.1-0.9-0.2-1.2-0.2c-0.3,0-0.6,0.2-0.8,0.6h-0.7v-7.3h0.7
	c0.4,2.1,1.2,3.6,2.4,4.7c1.2,1.1,2.5,1.6,4,1.6c1,0,1.9-0.3,2.5-0.9c0.7-0.6,1-1.3,1-2.2c0-1-0.4-1.9-1.1-2.6
	c-0.7-0.7-2.2-1.6-4.4-2.7c-2.2-1.1-3.6-2-4.3-2.9c-0.7-0.9-1-1.9-1-3.2c0-1.7,0.6-3.1,1.7-4.2c1.2-1.1,2.7-1.7,4.5-1.7
	c0.8,0,1.8,0.2,3,0.5c0.8,0.2,1.3,0.3,1.5,0.3c0.2,0,0.4,0,0.6-0.2c0.1-0.1,0.3-0.3,0.5-0.7"/>
<polyline class="st2" points="83.6,410.1 92.3,406.6 92.3,409.8 83.6,413.3 "/>
</svg>
