<?xml version="1.0" standalone="no"?>
<!DOCTYPE svg PUBLIC "-//W3C//DTD SVG 20010904//EN"
 "http://www.w3.org/TR/2001/REC-SVG-20010904/DTD/svg10.dtd">
<svg version="1.0" xmlns="http://www.w3.org/2000/svg"
 width="1024.000000pt" height="1024.000000pt" viewBox="0 0 1024.000000 1024.000000"
 preserveAspectRatio="xMidYMid meet" style="background-color: #FFFFFF;">
<metadata>
Created by potrace 1.16, written by Peter Selinger 2001-2019
</metadata>
<g transform="translate(0.000000,1024.000000) scale(0.100000,-0.100000)"
fill="#B00101" stroke="none">
<path d="M4906 9908 c-25 -18 -73 -53 -107 -77 -91 -64 -168 -95 -345 -139
-238 -58 -311 -102 -387 -232 -21 -36 -40 -56 -54 -58 -12 -2 -50 12 -85 30
-62 33 -64 33 -193 32 -117 -1 -144 -5 -270 -38 -247 -67 -321 -67 -432 1 -32
19 -74 37 -95 40 -32 5 -38 2 -51 -23 -8 -16 -20 -53 -26 -83 -23 -110 -69
-164 -202 -241 -194 -113 -300 -206 -347 -307 -24 -52 -27 -72 -30 -188 -2
-71 -7 -133 -11 -137 -3 -4 -49 13 -101 38 -92 44 -97 45 -175 41 -66 -3 -91
-9 -145 -37 -96 -48 -255 -160 -341 -237 -102 -94 -159 -118 -270 -117 l-86 1
1 -126 c1 -120 -1 -130 -32 -207 -18 -44 -66 -139 -108 -210 -131 -226 -139
-244 -138 -354 0 -167 47 -253 157 -285 52 -15 56 -18 46 -36 -13 -26 -46 -38
-146 -54 -100 -17 -131 -32 -206 -104 -82 -78 -124 -138 -147 -212 -26 -87
-143 -320 -181 -363 -16 -19 -60 -55 -97 -79 -81 -53 -91 -65 -99 -110 -4 -27
0 -42 16 -63 11 -15 21 -32 21 -39 0 -6 13 -38 29 -71 16 -32 31 -67 34 -76 3
-9 1 -122 -5 -250 -10 -207 -10 -244 5 -333 10 -55 29 -123 43 -153 35 -71
108 -143 182 -181 75 -38 74 -42 -18 -131 -55 -53 -71 -76 -84 -120 -41 -133
-39 -280 4 -530 27 -154 24 -239 -14 -330 -14 -35 -41 -79 -58 -97 -28 -28
-31 -37 -22 -60 7 -21 22 -31 69 -46 71 -24 135 -65 168 -110 13 -17 46 -72
72 -122 27 -49 63 -112 80 -140 18 -27 51 -87 74 -132 22 -45 55 -98 73 -118
47 -55 139 -113 262 -167 132 -58 150 -72 142 -113 -29 -159 -24 -368 10 -440
9 -19 76 -97 149 -174 204 -214 224 -249 234 -416 l6 -110 100 -7 c197 -14
255 -35 450 -157 163 -103 138 -96 335 -96 162 1 179 2 228 24 29 13 56 21 59
17 4 -4 12 -53 19 -111 13 -118 33 -167 97 -233 66 -69 116 -99 283 -167 216
-89 347 -168 403 -245 28 -38 32 -57 47 -182 l6 -58 36 0 c28 0 43 8 74 40 21
23 47 59 58 80 11 22 30 45 42 51 17 9 123 12 398 10 532 -2 573 6 655 130 25
38 49 69 53 69 5 0 22 -20 39 -44 36 -51 184 -154 270 -186 82 -31 180 -30
307 4 159 42 286 33 427 -30 61 -28 105 -67 111 -99 2 -14 12 -21 36 -23 44
-4 81 35 147 157 50 92 108 161 156 186 14 8 68 23 120 36 127 29 312 94 379
132 68 38 174 145 204 206 13 25 29 70 36 99 8 33 17 52 27 52 8 0 49 -17 91
-37 75 -37 80 -38 187 -38 106 0 113 1 187 37 96 45 147 80 263 176 145 122
181 133 329 103 32 -7 70 -10 83 -6 23 5 24 10 19 43 -3 20 -9 56 -12 79 l-6
42 111 114 c61 63 146 143 189 178 99 82 188 172 209 212 37 70 34 268 -7 424
-11 42 -20 84 -20 93 0 34 26 53 85 61 162 22 400 217 476 391 56 126 149 305
169 323 16 15 40 21 97 23 66 4 75 7 83 27 13 34 1 65 -43 113 -39 43 -39 45
-34 105 3 34 12 100 21 147 23 120 39 376 34 537 -5 156 -19 202 -87 283 -84
99 -81 148 10 164 40 7 112 64 133 105 19 36 24 74 41 326 17 238 37 387 59
439 8 19 30 52 51 74 37 42 52 91 41 135 -5 21 -13 25 -67 30 -33 4 -65 10
-71 13 -18 11 -66 127 -132 321 -138 404 -205 532 -305 582 -20 10 -70 22
-111 25 -79 8 -110 19 -110 39 0 7 16 32 35 56 43 54 49 84 48 246 0 183 -3
190 -193 460 -85 121 -104 211 -78 366 8 49 8 73 1 80 -6 6 -56 22 -112 35
-175 41 -260 96 -377 242 -142 177 -226 242 -360 276 -80 21 -203 21 -230 1
-46 -35 -71 -13 -85 73 -11 72 -35 131 -84 207 -74 116 -169 198 -394 340
-158 100 -185 124 -223 199 -17 34 -37 69 -46 79 -19 21 -68 22 -118 1 -59
-25 -209 -14 -354 24 -144 37 -249 46 -413 33 -148 -11 -199 -30 -248 -92 -39
-49 -55 -49 -63 -1 -7 45 -58 109 -122 153 -54 37 -142 60 -360 93 -244 38
-350 74 -391 132 -69 97 -92 105 -167 52z m429 -678 c579 -24 1023 -132 1570
-382 710 -325 1343 -869 1777 -1528 612 -930 818 -2058 572 -3135 -110 -479
-308 -941 -577 -1345 -664 -996 -1717 -1671 -2899 -1860 -183 -29 -417 -42
-758 -44 -338 -1 -424 8 -792 80 -676 133 -1306 426 -1828 850 -167 136 -534
499 -665 657 -735 886 -1053 2107 -850 3262 123 697 421 1344 871 1891 139
168 477 504 629 625 540 429 1179 727 1840 858 363 73 642 90 1110 71z"/>
<path d="M4859 9069 c-760 -39 -1483 -279 -2103 -699 -386 -261 -777 -645
-1039 -1021 -290 -417 -497 -872 -616 -1354 -142 -579 -141 -1248 5 -1842 129
-531 433 -1141 768 -1543 96 -116 346 -370 491 -500 510 -456 1196 -792 1907
-934 306 -61 412 -71 798 -71 361 0 439 6 715 51 1010 167 1910 694 2550 1494
97 121 285 403 363 545 291 526 456 1114 481 1707 12 307 -6 586 -55 858 -144
786 -513 1504 -1069 2079 -648 669 -1489 1082 -2455 1205 -117 15 -481 37
-560 34 -19 0 -101 -4 -181 -9z m626 -239 c278 -29 605 -100 866 -189 196 -66
301 -109 491 -202 411 -202 704 -413 1033 -743 186 -186 298 -319 420 -494
377 -543 598 -1135 666 -1787 26 -252 15 -647 -27 -915 -190 -1210 -962 -2245
-2099 -2812 -398 -199 -885 -341 -1290 -377 -345 -31 -843 -21 -1085 20 -1098
187 -2017 772 -2619 1664 -587 870 -779 1940 -530 2950 303 1226 1193 2204
2419 2660 302 112 679 198 990 224 69 6 143 13 165 15 70 7 496 -3 600 -14z"/>
<path d="M5060 8800 c-62 -13 -146 -56 -170 -88 -12 -15 -34 -45 -49 -68 -23
-32 -37 -43 -72 -50 -38 -8 -44 -13 -47 -38 -6 -50 6 -76 43 -92 19 -8 39 -23
45 -33 5 -11 13 -119 17 -240 l6 -221 74 0 73 0 1 163 c1 89 4 200 7 247 l7
85 85 3 c85 3 210 -11 238 -27 12 -7 -12 -22 -94 -60 -213 -100 -199 -90 -196
-141 1 -25 14 -82 27 -127 l25 -82 103 2 c100 2 103 1 147 -30 43 -31 68 -38
118 -35 40 3 53 55 65 270 8 145 14 198 25 206 55 44 62 55 62 104 l0 50 -262
5 c-145 3 -273 8 -286 12 -19 6 -20 10 -10 23 35 42 157 56 239 27 52 -19 69
-14 69 18 0 84 -153 145 -290 117z"/>
<path d="M5715 8540 c-4 -6 -9 -35 -12 -64 -5 -51 -5 -53 21 -60 45 -11 42
-32 -12 -90 -28 -30 -54 -66 -58 -80 -8 -32 9 -76 41 -106 25 -23 39 -24 142
-4 24 5 40 0 64 -17 39 -28 91 -30 119 -4 29 26 27 89 -5 140 -13 22 -25 46
-25 53 0 21 48 13 64 -10 30 -42 15 -189 -22 -231 -22 -25 -58 -39 -196 -77
-64 -18 -119 -36 -122 -41 -9 -16 17 -91 40 -113 13 -11 50 -30 82 -41 33 -11
90 -44 129 -72 38 -29 75 -53 82 -53 17 0 30 33 120 295 87 255 101 284 148
322 46 37 47 71 1 111 -19 16 -51 35 -71 42 -43 14 -58 5 -77 -46 -14 -39 -24
-43 -33 -14 -4 11 -18 34 -32 50 -28 34 -62 38 -138 19 -43 -11 -46 -10 -87
24 -47 38 -119 77 -142 77 -8 0 -18 -5 -21 -10z"/>
<path d="M3705 8349 c-65 -27 -361 -172 -402 -198 -18 -11 -33 -29 -33 -39 0
-17 68 -92 84 -92 4 0 55 21 114 46 59 25 131 55 161 65 l53 19 -18 -28 c-9
-15 -65 -84 -123 -155 -58 -70 -107 -132 -109 -136 -4 -13 170 -161 189 -161
10 0 41 11 71 25 45 21 67 25 155 25 56 0 108 3 117 6 29 11 18 82 -43 265
-65 192 -71 217 -75 296 -1 28 -8 58 -15 67 -18 21 -65 19 -126 -5z"/>
<path d="M6693 8359 c-18 -5 -40 -21 -49 -34 -14 -21 -24 -25 -64 -25 -40 0
-50 -4 -64 -25 -23 -35 -31 -82 -16 -100 17 -20 4 -56 -96 -264 -45 -95 -80
-179 -77 -187 6 -16 82 -54 110 -54 16 0 38 35 108 173 104 203 119 227 147
227 42 0 278 -146 278 -172 0 -8 -45 -9 -157 -5 -87 4 -167 4 -179 1 -17 -4
-26 -25 -49 -107 -16 -56 -30 -107 -32 -112 -2 -6 28 -26 68 -45 82 -40 143
-100 158 -157 11 -41 56 -83 88 -83 12 0 44 42 98 127 113 180 190 281 219
289 28 7 61 40 70 71 6 19 -3 29 -66 69 -40 26 -117 72 -171 103 -100 57 -217
144 -217 161 0 16 94 11 136 -6 21 -9 62 -31 91 -50 56 -36 81 -41 114 -24 62
34 -47 172 -171 216 -54 19 -232 28 -277 13z"/>
<path d="M3092 8027 c-57 -58 -62 -78 -32 -130 l20 -34 -102 -6 c-57 -3 -120
-11 -141 -18 -126 -41 -208 -318 -114 -384 39 -27 67 -19 117 36 61 67 84 65
88 -7 3 -58 20 -80 68 -90 45 -9 79 24 94 88 24 107 61 218 71 213 5 -4 43
-51 84 -105 41 -54 79 -102 85 -105 12 -7 81 24 119 54 28 21 30 16 -69 171
-79 124 -124 209 -140 269 -12 45 -58 101 -82 101 -8 0 -37 -24 -66 -53z"/>
<path d="M7367 7809 c-18 -10 -57 -79 -57 -100 0 -7 7 -20 16 -30 15 -16 9
-25 -89 -126 -122 -127 -142 -159 -134 -218 11 -77 23 -95 61 -95 19 0 45 4
58 9 13 4 36 11 51 15 l28 7 -29 -43 c-74 -109 -80 -152 -28 -204 42 -42 56
-43 56 -4 0 73 76 149 181 180 37 11 72 27 80 36 7 8 14 39 17 69 5 64 3 66
-125 96 -48 11 -96 22 -106 25 -13 4 -6 15 35 50 87 75 76 77 187 -33 54 -54
103 -108 110 -120 10 -20 5 -30 -48 -91 -32 -37 -79 -101 -105 -140 -28 -44
-61 -81 -86 -97 -40 -25 -54 -54 -48 -96 3 -21 8 -24 45 -23 100 2 255 119
268 202 7 49 35 102 61 119 20 13 25 11 60 -23 l39 -36 -40 -35 c-22 -19 -104
-85 -182 -145 -79 -61 -143 -118 -143 -126 0 -20 45 -78 76 -98 23 -15 26 -14
76 22 29 20 85 63 123 94 140 113 191 144 234 142 46 -3 111 21 111 41 0 61
-297 402 -558 641 -144 132 -169 149 -195 135z"/>
<path d="M3728 7655 c-31 -18 -42 -44 -33 -84 9 -42 38 -63 93 -69 41 -3 53 0
77 20 23 20 28 33 29 71 1 25 -5 52 -11 58 -19 19 -123 22 -155 4z"/>
<path d="M4867 7650 c-670 -56 -1276 -339 -1727 -806 -359 -372 -578 -781
-674 -1264 -39 -195 -49 -327 -43 -568 7 -305 50 -536 148 -803 253 -694 894
-1311 1609 -1549 275 -92 490 -129 785 -137 337 -9 602 17 835 81 708 195
1282 631 1639 1246 152 264 274 615 300 870 28 266 21 630 -14 835 -61 346
-252 758 -503 1085 -97 126 -340 363 -474 463 -393 294 -833 473 -1309 532
-157 19 -432 26 -572 15z m619 -254 c444 -76 905 -290 1231 -570 409 -352 695
-847 784 -1356 27 -150 36 -443 20 -605 -53 -527 -273 -993 -649 -1373 -313
-317 -655 -528 -1052 -648 -207 -63 -583 -101 -885 -90 -229 8 -320 20 -479
61 -587 150 -1089 508 -1431 1020 -148 221 -293 568 -344 821 -57 285 -50 619
20 939 110 499 441 999 879 1326 389 291 798 447 1290 493 104 9 527 -3 616
-18z"/>
<path d="M5115 6328 c-74 -88 -173 -355 -194 -526 -10 -79 2 -188 25 -234 9
-18 45 -63 81 -100 94 -95 85 -106 -118 -139 -64 -10 -172 -32 -240 -49 -224
-56 -430 -51 -632 15 -43 14 -95 25 -115 25 -21 0 -47 6 -57 14 -17 12 -14 18
49 85 88 94 106 133 106 239 0 98 -18 174 -90 387 -67 196 -85 229 -128 233
-26 3 -39 -3 -63 -29 -66 -71 -186 -366 -209 -516 -22 -139 10 -224 126 -338
42 -40 73 -78 70 -83 -3 -5 -20 -12 -37 -16 -19 -3 -48 -23 -70 -46 -72 -76
-75 -202 -7 -305 40 -60 140 -143 232 -192 l71 -38 229 -3 c256 -4 757 13 856
29 35 5 96 24 135 41 95 43 123 41 245 -21 l102 -52 101 6 c56 3 241 10 411
15 348 12 431 21 497 57 83 45 159 169 167 273 8 114 -20 169 -126 252 l-22
18 42 67 c84 138 108 200 108 281 0 118 -60 273 -154 399 -26 34 -54 82 -62
108 -24 69 -73 95 -107 57 -20 -22 -51 -109 -76 -212 -10 -41 -36 -107 -56
-147 -34 -65 -38 -80 -39 -150 -2 -127 12 -157 132 -303 45 -55 53 -93 24
-109 -10 -6 -61 -17 -113 -25 -52 -9 -123 -25 -157 -36 -110 -35 -308 -24
-474 26 -45 13 -122 29 -172 35 -165 20 -186 55 -91 149 118 117 127 278 28
490 -48 102 -61 141 -83 243 -24 111 -51 157 -90 157 -19 0 -36 -10 -55 -32z"/>
<path d="M5590 4641 c-111 -6 -117 -8 -176 -44 -119 -74 -271 -72 -369 3 l-52
40 -449 -1 c-247 -1 -462 -4 -479 -8 -21 -4 -47 -28 -92 -83 -79 -99 -91 -134
-75 -240 15 -104 46 -157 119 -206 l56 -37 1051 0 1051 0 70 23 c81 25 174 93
199 146 33 71 11 221 -44 302 -17 24 -52 56 -77 71 -43 25 -58 28 -197 34
-174 9 -371 8 -536 0z"/>
<path d="M2524 7530 c-23 -9 -369 -366 -369 -380 0 -18 77 -90 95 -90 10 0 64
48 119 106 56 59 101 102 101 96 0 -6 -11 -55 -25 -109 -35 -140 -35 -142 33
-203 71 -64 136 -102 165 -98 14 2 34 22 54 53 53 85 63 92 134 100 193 20
191 59 -17 247 -128 116 -175 169 -189 215 -6 21 -59 74 -73 72 -4 0 -16 -4
-28 -9z"/>
<path d="M3153 7410 c-65 -66 -71 -171 -14 -222 27 -24 39 -28 94 -28 74 0
130 27 164 80 47 74 45 72 122 79 87 8 110 31 78 75 -19 25 -79 35 -257 42
l-155 7 -32 -33z"/>
<path d="M2037 6958 c-59 -105 -104 -192 -158 -308 -53 -114 -57 -126 -43
-142 19 -20 97 -38 140 -31 21 3 66 -9 150 -42 128 -51 230 -69 259 -45 22 18
18 84 -9 162 l-24 67 24 -9 c13 -5 41 -18 63 -30 80 -40 221 -17 221 36 0 28
-40 49 -77 39 -54 -13 -141 51 -214 157 -105 154 -165 124 -175 -89 -3 -59 -7
-114 -10 -121 -3 -10 -20 -5 -64 19 l-59 31 14 32 c7 17 34 76 59 131 25 55
46 110 46 122 0 30 -45 63 -86 63 -29 0 -36 -6 -57 -42z"/>
<path d="M8118 6910 c-20 -11 -39 -24 -43 -29 -3 -5 33 -87 80 -181 47 -95 85
-182 85 -194 0 -13 -9 -31 -20 -41 -20 -18 -20 -17 -20 11 -1 44 -36 112 -65
126 -21 9 -25 18 -25 55 0 74 -65 116 -182 116 -128 0 -216 -77 -226 -196 -3
-47 -1 -55 26 -80 19 -18 45 -31 70 -34 34 -5 44 -1 66 20 31 31 34 77 10 137
-12 29 -14 44 -6 52 16 16 58 1 77 -28 16 -25 16 -28 -10 -87 -38 -82 -30 -92
68 -92 42 0 79 -4 84 -8 16 -17 -18 -44 -118 -95 -57 -29 -113 -61 -123 -72
-18 -18 -19 -21 -3 -86 10 -37 20 -70 23 -73 3 -3 98 41 210 99 l205 105 85 4
c54 2 84 7 84 15 1 25 -100 261 -175 411 -88 175 -92 179 -157 145z"/>
<path d="M1778 6408 c-47 -36 -135 -331 -218 -728 -21 -101 -37 -186 -35 -188
2 -2 27 1 55 7 28 6 63 11 79 11 27 0 71 35 71 57 0 22 42 63 65 63 34 0 62
-28 98 -99 24 -48 39 -67 60 -74 61 -20 139 19 173 86 9 17 22 66 30 109 16
91 25 111 70 154 42 39 48 95 12 118 -13 8 -102 38 -198 65 -209 60 -243 75
-236 99 3 9 8 29 12 45 5 21 12 27 34 27 41 0 149 -26 272 -65 59 -19 122 -36
140 -37 31 -3 33 -1 45 45 6 26 13 61 15 79 l3 31 -178 48 c-215 58 -244 71
-252 109 -4 16 -14 31 -23 34 -52 14 -79 15 -94 4z m105 -544 c56 -14 119 -30
140 -35 l37 -10 -15 -29 c-8 -16 -15 -42 -15 -59 0 -59 -29 -45 -106 53 l-30
38 -82 -41 c-45 -22 -85 -41 -88 -41 -10 0 3 105 16 129 14 27 20 26 143 -5z"/>
<path d="M8421 6221 c-6 -11 -11 -33 -11 -50 0 -17 -4 -31 -10 -31 -12 0 -52
-78 -75 -148 l-17 -53 -72 78 -73 77 -67 -43 c-88 -58 -92 -66 -66 -147 26
-86 26 -162 -1 -214 -16 -30 -19 -49 -14 -79 13 -76 7 -75 210 -52 232 27 289
27 322 1 32 -25 84 -26 114 -1 22 18 23 21 12 72 -7 30 -35 162 -63 294 -27
132 -54 256 -58 275 -8 34 -9 35 -64 38 -48 3 -58 0 -67 -17z m57 -413 l9 -56
-41 -6 c-23 -3 -77 -8 -121 -11 -44 -3 -95 -8 -112 -11 l-33 -5 0 65 c0 36 4
67 8 70 4 3 29 -9 55 -26 67 -43 85 -35 150 62 l52 79 12 -52 c7 -29 16 -77
21 -109z"/>
<path d="M7862 5883 c-19 -7 -42 -58 -42 -91 0 -80 44 -120 118 -109 46 8 72
38 72 84 0 84 -77 145 -148 116z"/>
<path d="M7946 4458 c-19 -30 -126 -435 -133 -504 -5 -51 -5 -54 21 -64 47
-17 104 -13 116 10 6 11 21 20 34 20 13 0 40 11 61 25 35 25 38 25 51 8 13
-18 34 -98 34 -132 0 -36 25 -44 113 -39 165 11 227 77 227 247 0 36 4 71 8
77 4 6 23 16 43 23 40 13 73 44 84 79 6 19 0 25 -42 43 -26 11 -118 42 -203
68 -197 62 -224 73 -246 107 -36 54 -141 74 -168 32z m324 -305 c44 -37 67
-153 40 -204 -16 -28 -25 -24 -45 24 -9 23 -22 52 -28 64 -15 32 -102 73 -154
73 -29 0 -46 5 -49 15 -5 12 -2 28 21 102 6 17 178 -42 215 -74z"/>
<path d="M2110 4452 c-32 -15 -36 -22 -41 -70 -12 -96 -58 -116 -130 -57 -59
50 -76 58 -113 51 -68 -13 -136 -125 -136 -225 0 -59 43 -151 95 -201 l35 -34
-42 -11 c-51 -12 -68 -39 -68 -109 l0 -49 53 6 c28 3 136 31 239 62 103 30
204 57 225 58 32 2 38 -1 47 -26 13 -35 24 -28 -194 -122 -209 -90 -230 -108
-230 -190 0 -54 1 -55 28 -55 16 0 118 36 228 80 187 75 254 93 254 70 0 -27
93 7 105 38 9 25 -217 728 -251 779 -18 28 -55 30 -104 5z m-180 -337 l43 -44
84 45 83 46 10 -27 c5 -14 10 -40 10 -56 0 -25 -6 -33 -34 -44 -60 -26 -121
-38 -148 -32 -39 10 -83 51 -107 99 -35 72 -6 79 59 13z"/>
<path d="M7784 3845 c-39 -39 -314 -464 -314 -486 0 -10 104 -69 121 -69 8 0
34 34 58 76 96 165 180 284 203 284 17 0 7 -23 -26 -61 -19 -22 -39 -60 -45
-83 -7 -27 -20 -50 -36 -60 -50 -33 -92 -154 -75 -217 21 -75 153 -163 246
-163 40 0 71 9 148 47 53 25 99 54 103 63 3 9 0 36 -8 58 -17 51 -48 57 -121
26 -69 -30 -120 -29 -162 4 -34 25 -54 61 -42 73 3 4 21 -2 38 -11 23 -12 50
-16 87 -14 71 4 82 21 51 79 -32 62 -41 98 -29 120 13 25 43 24 136 -6 43 -14
95 -25 116 -25 57 0 119 42 102 70 -3 4 -53 36 -112 71 -240 140 -280 165
-324 206 -53 49 -80 53 -115 18z"/>
<path d="M2462 3569 c-17 -17 -32 -41 -32 -53 0 -11 29 -68 65 -125 36 -58 63
-107 60 -109 -8 -8 -36 21 -76 79 -21 31 -53 69 -71 84 -30 26 -37 27 -109 23
-88 -5 -133 -26 -163 -77 -15 -26 -20 -60 -25 -173 -7 -154 0 -139 -81 -192
-32 -20 -35 -26 -34 -68 0 -63 15 -78 78 -78 58 0 128 17 138 34 4 6 8 25 8
41 0 46 12 57 52 50 47 -9 105 16 118 50 14 37 12 121 -2 133 -7 5 -37 12 -67
14 -59 6 -83 25 -74 59 3 11 14 24 25 30 45 24 103 -19 158 -118 63 -113 87
-123 175 -73 45 26 60 29 94 24 38 -6 44 -4 76 30 19 21 35 46 35 56 0 17
-134 209 -229 327 -26 32 -56 59 -67 61 -11 2 -33 -10 -52 -29z"/>
<path d="M7235 3137 c-116 -111 -263 -251 -328 -310 -78 -73 -117 -116 -117
-130 0 -30 49 -77 80 -77 19 0 47 18 91 58 92 82 112 94 53 31 -69 -73 -84
-98 -84 -135 0 -42 39 -89 87 -105 34 -11 70 -10 223 7 l55 6 -32 -27 c-39
-31 -44 -72 -12 -101 17 -15 39 -20 113 -22 79 -3 97 0 136 20 51 26 86 79 96
144 9 62 16 67 94 75 40 5 75 10 78 13 9 10 -53 81 -225 258 -95 97 -173 181
-173 187 0 12 32 31 54 31 8 0 66 -49 128 -108 62 -60 124 -116 138 -125 47
-33 210 -14 210 24 0 11 -31 49 -72 87 -181 168 -278 270 -278 293 0 24 -75
109 -95 109 -5 -1 -105 -92 -220 -203z m116 -334 l99 -96 0 -71 c0 -39 -3 -81
-6 -93 -6 -21 -6 -21 -25 -2 -10 10 -27 19 -38 19 -25 0 -37 17 -44 65 -8 48
-45 85 -88 85 -22 0 -45 -14 -90 -56 -33 -31 -63 -53 -67 -49 -3 3 26 36 66
73 63 59 72 72 72 102 0 22 -9 46 -24 65 -22 27 -22 31 -7 42 31 24 53 12 152
-84z"/>
<path d="M2791 3145 c-59 -65 -56 -79 43 -177 86 -86 127 -138 107 -138 -6 0
-20 18 -31 40 -55 107 -232 152 -344 86 -57 -33 -80 -80 -74 -152 6 -71 43
-116 134 -166 38 -21 68 -43 66 -50 -2 -6 -12 -22 -23 -36 -31 -40 -17 -182
19 -182 8 0 78 62 156 138 225 218 221 215 268 221 34 5 47 13 65 40 40 59 30
94 -43 152 -21 17 -96 84 -166 150 -69 65 -128 119 -131 119 -2 0 -23 -20 -46
-45z m-24 -336 c37 -18 64 -38 68 -50 16 -49 -38 -49 -143 1 -68 32 -86 55
-57 76 23 17 52 11 132 -27z"/>
<path d="M3233 2800 c-41 -16 -65 -89 -43 -129 7 -13 1 -35 -21 -82 -72 -152
-72 -246 1 -319 21 -21 52 -41 70 -45 24 -5 30 -11 25 -23 -4 -10 -9 -39 -12
-65 -5 -44 -8 -48 -27 -42 -12 3 -39 9 -62 12 -72 9 -92 -42 -42 -107 14 -18
16 -26 7 -29 -24 -8 -88 78 -109 147 -25 80 -34 92 -71 92 -35 0 -44 -27 -36
-106 16 -159 146 -289 266 -269 78 13 139 78 124 133 -4 17 8 36 50 82 31 33
80 101 110 152 65 109 143 218 157 218 17 0 50 63 50 97 0 40 -20 55 -190 153
-69 40 -145 87 -169 106 -48 37 -46 37 -78 24z m173 -267 c24 -16 44 -33 44
-39 0 -13 -50 -84 -73 -102 -9 -8 -34 -12 -64 -10 -39 2 -48 6 -47 21 2 18 82
157 92 157 3 0 24 -12 48 -27z"/>
<path d="M6320 2751 c-131 -40 -196 -132 -188 -264 2 -34 7 -69 11 -78 6 -12
-1 -18 -33 -28 -45 -13 -47 -19 -24 -64 23 -45 44 -67 65 -67 28 0 72 -63 154
-220 42 -81 87 -157 99 -170 31 -28 142 -42 151 -18 8 21 -23 95 -126 303
l-90 180 128 62 c70 35 133 63 138 63 6 0 -17 -17 -50 -38 -72 -46 -110 -89
-127 -143 -23 -78 27 -185 100 -216 55 -23 156 -14 221 20 63 32 65 33 91 7
18 -18 31 -20 102 -18 45 2 83 8 85 13 2 6 -27 62 -63 125 -135 233 -184 327
-199 378 -10 33 -25 58 -40 68 -32 21 -54 13 -264 -87 -90 -44 -168 -79 -173
-79 -5 0 -8 23 -6 52 3 46 7 55 35 74 17 12 59 26 92 33 90 18 110 45 70 95
-18 23 -27 26 -77 25 -31 0 -68 -4 -82 -8z m420 -467 c13 -14 9 -21 -32 -60
-68 -64 -128 -71 -136 -15 -5 29 21 57 78 86 47 24 64 22 90 -11z"/>
<path d="M3702 2456 c-6 -31 -9 -62 -7 -69 3 -6 31 -25 62 -42 73 -39 82 -54
60 -100 l-17 -36 -34 20 c-83 52 -135 6 -124 -109 8 -80 143 -343 193 -376 18
-12 27 -12 49 -3 35 16 34 49 -3 131 -50 110 -50 168 0 168 22 0 42 34 78 126
20 52 33 72 54 82 32 16 67 67 67 98 0 19 -24 32 -152 89 -84 37 -166 69 -183
72 -31 5 -32 5 -43 -51z"/>
<path d="M4662 2470 c-100 -21 -164 -81 -176 -164 -5 -33 -13 -47 -27 -51 -40
-13 -49 -106 -13 -136 13 -11 15 -46 13 -253 l-2 -239 53 -39 c59 -42 76 -46
84 -20 3 9 12 112 21 227 8 116 18 236 21 268 l7 58 166 -7 c192 -8 215 -13
219 -41 3 -20 0 -21 -81 -16 -176 11 -296 -77 -297 -220 0 -81 45 -150 113
-176 41 -16 148 -13 198 4 49 18 59 11 59 -43 0 -47 14 -68 64 -97 56 -33 82
-33 90 1 4 15 11 149 15 300 7 224 12 277 25 296 10 14 16 43 16 75 l0 53
-247 1 c-137 1 -259 4 -273 8 -30 8 -36 29 -16 56 21 29 146 27 235 -4 79 -26
95 -18 81 42 -11 49 -34 75 -88 99 -50 22 -193 32 -260 18z m368 -579 c0 -39
-85 -87 -187 -105 -58 -10 -81 38 -43 87 24 30 39 34 148 36 75 1 82 -1 82
-18z"/>
<path d="M5720 2299 c-80 -10 -215 -25 -300 -34 -85 -9 -161 -22 -168 -28 -18
-14 -11 -105 8 -117 8 -5 17 -39 21 -82 11 -99 27 -113 143 -123 130 -10 122
-35 -17 -50 -81 -8 -94 -24 -82 -102 5 -38 15 -56 46 -85 56 -53 82 -57 142
-23 62 35 107 30 187 -19 66 -41 80 -43 103 -18 38 42 22 66 -105 151 -81 53
-88 66 -64 110 13 24 13 23 42 -29 16 -30 41 -63 56 -74 40 -29 110 -25 176 8
29 15 57 24 62 21 4 -3 11 -19 15 -35 10 -47 30 -60 89 -60 28 0 57 5 62 10 8
8 3 45 -16 123 -42 170 -61 297 -58 381 2 60 0 79 -12 86 -23 15 -169 10 -330
-11z"/>
</g>
</svg>
