<?xml version="1.0" encoding="utf-8"?>
<!-- Generator: Adobe Illustrator 19.0.0, SVG Export Plug-In . SVG Version: 6.00 Build 0)  -->
<svg version="1.1" id="layer" xmlns="http://www.w3.org/2000/svg" xmlns:xlink="http://www.w3.org/1999/xlink" x="0px" y="0px"
	 viewBox="-153 -46 652 652" style="enable-background:new -153 -46 652 652;" xml:space="preserve">
<style type="text/css">
	.st0{fill-rule:evenodd;clip-rule:evenodd;fill:#F17176;}
</style>
<path class="st0" d="M422.3,338c3.2-1.5,5.6-3.7,7.2-6.5v-56c-0.5-1.5-1.6-3.1-3.3-4.7c-1.7-1.6-3.7-3-5.8-4c-2.2-1-4.2-1.6-6.1-1.6
	c-9.2,0-15.8,3.4-19.7,10.3c-3.9,6.8-5.9,16.6-5.9,29.2c0,23.7,8,35.6,24,35.6C415.9,340.3,419.1,339.6,422.3,338 M374.9,347.3
	c-6.3-4.5-10.9-10.5-13.8-17.8c-2.9-7.4-4.3-15.6-4.3-24.7c0-8.8,1.8-16.9,5.5-24.4c3.6-7.5,9.1-13.5,16.3-18.1
	c7.3-4.6,16.1-6.9,26.5-6.9c5.4,0,9.9,0.4,13.6,1.3c3.7,0.8,7.6,2.5,11.6,5l-0.9-36.1c0-4.1-1.6-7.1-4.9-8.7
	c-3.3-1.6-8-2.7-14.2-3.1c-0.7-0.3-1.3-0.7-1.7-1.3c-0.4-0.6-0.6-1.4-0.6-2.4c0-0.9,0.2-1.8,0.6-2.7c0.5-0.9,1-1.4,1.6-1.5
	c9.8-0.6,22.5-1,38-1h7.8c0.7,0,1.3,0.3,1.9,0.9c0.6,0.6,0.9,1.6,0.9,2.9v126.2c0,2.5,0.5,4.4,1.6,5.7c1,1.3,2.3,2.1,3.7,2.5
	c1.4,0.4,3.2,0.7,5.3,1c1.4,0.1,2.3,0.4,2.7,0.8c0.5,0.4,0.7,1.3,0.7,2.7c0,0.8-0.3,1.7-0.9,2.5c-0.6,0.9-1.4,1.3-2.3,1.3h-32.6
	c-2.4,0-4.1-0.4-5.1-1.1c-1-0.7-1.7-1.8-1.9-3c-0.2-1.3-0.2-3.3-0.2-6.2c-3,4.2-7.5,7.4-13.3,9.6c-5.6,2.2-11.6,3.3-17.7,3.3
	C389.3,354.1,381.2,351.8,374.9,347.3 M185.2,270.7c-2.2-4.9-5.7-7.3-10.6-7.3c-5.1,0-9.5,2.5-13.2,7.6c-3.7,5.1-5.9,12.9-6.8,23.4
	h33.9C188.5,283.5,187.4,275.6,185.2,270.7 M135.5,341.1c-8.9-8.6-13.4-21.1-13.4-37.3c0-10.2,2.4-18.9,7.2-26.2
	c4.8-7.3,11.2-12.8,19.2-16.6c8-3.7,16.8-5.6,26.4-5.6c14,0,24.4,2.7,31.3,8.2c6.9,5.5,11.2,13.4,13,24c0.6,3.4,0.8,8.6,0.8,15.6
	l-65.7,0.1c0,9.2,1.4,16.6,4.3,22.3c2.8,5.7,6.5,9.7,10.9,12.2c4.3,2.4,9.1,3.7,14,3.7c5.8,0,10.7-0.8,14.6-2.3
	c3.9-1.5,7.4-4,10.3-7.5c0.2-0.2,0.3-0.4,0.5-0.6c0.2-0.3,0.5-0.6,0.9-0.7c0.3-0.1,0.7-0.2,1-0.1l4.2,2c0.6,0.2,1,0.6,1,1.1
	c0,0.4-0.2,0.9-0.6,1.6c-3.4,5.9-8.4,10.6-15,14c-6.5,3.4-14.6,5.1-24.2,5.1C158,354.1,144.4,349.8,135.5,341.1 M228.3,350
	c-0.5-0.8-0.8-1.7-0.8-2.6c0-1.1,0.2-1.9,0.6-2.5c0.5-0.6,1.3-0.9,2.5-1c6.7-0.8,10-2.8,10-6.1v-60.2c0-2.9-0.5-5.1-1.6-6.6
	c-1.1-1.5-2.3-2.5-3.7-3c-1.4-0.5-3.3-0.9-5.5-1.2c-1.8-0.3-2.9-0.4-3.2-0.6c-0.7-0.3-1.3-0.7-1.7-1.3c-0.4-0.6-0.6-1.4-0.6-2.5
	c0-0.9,0.2-1.8,0.6-2.7c0.4-0.9,1-1.4,1.7-1.5c14.8-0.9,28.1-1.3,40-1.3c0.6,0,1.2,0.3,1.8,0.8c0.6,0.6,0.9,1.6,1,2.9v10.6
	c1.4-1.7,4.1-3.8,8.1-6.4c4-2.5,8.6-4.8,13.9-6.7c5.3-1.9,10.5-2.9,15.6-2.9c9.3,0,16.7,2,22.2,6c5.5,4,8.2,11.4,8.2,22.2v51.2
	c0,3.5,0.9,5.8,2.7,6.9c1.8,1.1,3.6,1.7,5.5,1.9l3.8,0.4c1.1,0.1,1.9,0.4,2.4,0.9c0.5,0.5,0.7,1.3,0.7,2.6c0,0.9-0.3,1.8-0.9,2.6
	c-0.5,0.8-1.4,1.3-2.4,1.3h-50.8c-1,0-1.9-0.5-2.4-1.3c-0.6-0.8-0.8-1.7-0.9-2.6c0-1.1,0.2-2,0.6-2.5c0.4-0.5,1.2-0.9,2.4-1
	c2.2-0.2,4.3-0.9,6.3-2c1.9-1.1,2.8-2.4,2.8-4.1V284c0-2.2-0.2-4.4-0.6-6.6c-0.4-1.9-1.4-3.7-3.1-5.3c-1.7-1.6-4.2-2.4-7.6-2.4
	c-3.2,0-6.5,0.6-9.9,1.8c-3.4,1.2-6.5,2.8-9.3,4.6c-2.8,1.8-5,3.6-6.6,5.4v53.2c0,2.5,0.5,4.4,1.4,5.7c0.9,1.3,2,2.1,3.4,2.6
	c1.3,0.4,3,0.7,5.1,0.9c1.4,0.1,2.3,0.4,2.7,0.8c0.5,0.4,0.7,1.3,0.7,2.7c0,0.8-0.3,1.7-0.9,2.5c-0.6,0.9-1.4,1.3-2.3,1.3h-49.7
	C229.7,351.4,228.8,350.9,228.3,350 M9.4,332.8c-3.9,4.8-9,7.2-15.2,7.2c-3.9,0-7-1.2-9.1-3.7c-2.2-2.5-3.3-5.4-3.3-8.8
	c0-6.1,1.3-10.9,4-14.4c2.7-3.5,5.9-5.9,9.8-7.4c3.9-1.4,8.5-2.6,13.9-3.4V332.8z M118,344.8c-0.5-0.4-1.4-0.7-2.7-0.8
	c-1.9-0.2-3.9-0.5-5.8-0.9c-1.5-0.3-2.9-1.1-4-2.3c-1.2-1.2-1.8-2.9-1.8-5.1V208.6c0-1.3-0.3-2.3-0.9-2.9c-0.6-0.6-1.3-0.9-1.9-0.9
	c-14.5,0-28.5,0.5-42.1,1.3c-0.6,0.1-1.2,0.5-1.6,1.5c-0.4,0.9-0.6,1.8-0.6,2.7c0,1.1,0.2,1.9,0.6,2.5c0.4,0.6,1,1.1,1.7,1.3
	c0.3,0,1.4,0.2,3.6,0.6c2.6,0.3,4.7,0.7,6.4,1.2c1.6,0.5,3.1,1.5,4.3,3c1.2,1.5,1.8,3.8,1.8,6.7l-0.1,113.2c0,1.6-10.4,3.9-17.2,3.9
	c-6.9,0-15.3-2.3-16-3.9c-0.7-1.7-1-3.7-1-6.2v-50.9c0-5.2-1.4-9.7-4.4-13.7c-2.9-3.9-7.4-7-13.5-9.3c-6.1-2.2-13.9-3.3-23.2-3.3
	c-6.6,0-13.3,0.8-20.3,2.4c-7,1.6-12.9,4.1-17.7,7.5c-4.8,3.4-7.2,7.6-7.2,12.6c0,3.9,1.4,7.1,4.3,9.6c1.9,1.7,4.3,2.7,6.9,3.3
	c2.8,0.4,5.7-0.2,5.4-3.9c0-0.3,0-0.4,0-0.6c-0.6-7.7,3.2-15.8,12.8-20c0.5-0.2,0.8-0.3,1.2-0.5c1.7-0.8,5.3-1.5,10.5-1.5
	c4.6,0,8.2,1.1,10.5,3.2c2.4,2.1,3.5,6,3.5,11.6v15.6c-10.8,1.1-20.5,2.8-29,4.9c-8.6,2.1-15.8,5.5-21.8,10.2c-6,4.6-9,10.9-9,18.6
	c0,5.7,1.5,10.4,4.4,14.2c2.8,3.7,6.6,6.6,10.9,8.3c4.3,1.7,8.6,2.7,12.9,2.7c6.7,0,13-1.1,18.7-3.3c5.7-2.2,10.6-5.4,14.6-9.6v0.3
	c0,2.1,0.4,5.5,0.4,5.5s0.4,2.7,3.6,4.4c3.2,1.7,24.6,0.4,28.2,0.4h72c1,0,1.9-0.5,2.4-1.3c0.6-0.8,0.8-1.7,0.8-2.6
	C118.7,346.1,118.5,345.2,118,344.8L118,344.8z M118,344.8 M-56.9,341.3c0.4,1.1,0.4,1.8,0,2c-1.6,1.7-4,3.4-7.3,5.1
	c-3.3,1.7-6.8,3-10.6,4.1c-3.8,1.1-7,1.6-9.9,1.6c-9.1,0-16.3-1.8-21.7-5.3c-5.4-3.5-8.1-9.8-8.1-18.6v-62.7h-10.1
	c-0.6-0.1-1.2-0.5-1.6-1.5c-0.1-0.3-0.2-0.6-0.3-0.8c-0.8-3.3,2.4-4.1,2.4-4.1c15.4-4.8,27.9-16.1,34.3-30.9c0,0,1.4-2.6,3.7-1.8
	c1.3,0.5,2,1.3,2,2.4v26.4h20.9c0.7,0.1,1.3,0.5,1.6,1.1c0.4,0.6,0.6,1.4,0.6,2.2c0,2-0.3,3.6-0.9,4.9c-0.6,1.3-1.2,2-1.9,2h-20.3
	v54.4c0,5.4,0.3,9.4,0.8,12.3c0.5,2.8,1.4,4.7,2.7,5.8c1.2,1,3,1.6,5.3,1.6c2.1,0,4.5-0.4,7.4-1.2c2.8-0.8,5.4-1.8,7.8-3
	c0.4-0.2,0.9,0.2,1.6,1.1C-57.9,339.2-57.3,340.2-56.9,341.3"/>
</svg>
